<svg width="20" height="20" viewBox="0 0 20 20" fill="none" xmlns="http://www.w3.org/2000/svg">
<g clip-path="url(#clip0_402_448)">
<path d="M9.37499 18.75H1.25002V1.25003H9.37499C9.72 1.25003 9.99997 0.970004 9.99997 0.625043C9.99997 0.280082 9.71995 6.10352e-05 9.37499 6.10352e-05H0.624982C0.280021 6.10352e-05 0 0.28003 0 0.625043V19.375C0 19.72 0.280021 20 0.624982 20H9.37494C9.71995 20 9.99992 19.7199 9.99992 19.375C9.99997 19.03 9.71995 18.75 9.37499 18.75Z" fill="black"/>
<path d="M19.8187 9.56373L15.5063 5.18938C15.2619 4.9425 14.8663 4.94313 14.6225 5.18938C14.3781 5.43563 14.3781 5.83561 14.6225 6.08186L17.8725 9.37873H5.00194C4.65692 9.37873 4.37695 9.66125 4.37695 10.01C4.37695 10.3588 4.65697 10.6413 5.00194 10.6413H17.8725L14.6225 13.9381C14.3781 14.185 14.3781 14.5844 14.6225 14.8306C14.8669 15.0775 15.2625 15.0775 15.5063 14.8306L19.8181 10.4563C20.0594 10.2131 20.0619 9.80625 19.8187 9.56373Z" fill="black"/>
</g>
<defs>
<clipPath id="clip0_402_448">
<rect width="20" height="20" fill="white"/>
</clipPath>
</defs>
</svg>
