<svg width="20" height="20" viewBox="0 0 20 20" fill="none" xmlns="http://www.w3.org/2000/svg">
<path d="M19.954 14.38C19.0825 16.0736 17.7281 17.4949 16.064 18.4879C14.4523 19.4456 12.552 20 10.5256 20C7.61727 20 4.98719 18.871 3.08156 17.0413C1.17593 15.2117 0 12.6864 0 9.89409C0 7.48984 0.876695 5.27712 2.3466 3.5382C3.83751 1.76904 5.94263 0.493826 8.35222 0.00995228C8.58846 -0.0404513 8.81944 0.105719 8.86669 0.332535C8.88769 0.428302 8.87194 0.524068 8.82994 0.604714C8.50446 1.23476 8.25248 1.90009 8.08449 2.60069C7.9165 3.28114 7.83251 3.98679 7.83251 4.71764C7.83251 7.27814 8.90869 9.59167 10.6568 11.2701C12.405 12.9435 14.8146 13.9818 17.4814 13.9818C17.8279 13.9818 18.1586 13.9667 18.4841 13.9314C18.8201 13.9012 19.1508 13.8508 19.4763 13.7852C19.7125 13.7348 19.9435 13.881 19.9907 14.1078C20.0117 14.2036 19.996 14.2994 19.954 14.38ZM15.602 17.7772C16.8777 17.0161 17.9591 15.9778 18.7466 14.748L18.5733 14.7681C18.2059 14.8034 17.8436 14.8236 17.4814 14.8236C14.5731 14.8236 11.943 13.6895 10.0374 11.8649C8.13174 10.0352 6.95581 7.51 6.95581 4.71764C6.95581 3.92631 7.05031 3.15513 7.23404 2.4142C7.34429 1.94041 7.49653 1.48678 7.67502 1.04323C5.82713 1.58758 4.21548 2.65614 3.02381 4.06744C1.67989 5.65515 0.876695 7.68641 0.876695 9.89409C0.876695 12.4546 1.95288 14.7681 3.70102 16.4466C5.44916 18.125 7.85875 19.1583 10.5256 19.1583C12.3892 19.1583 14.1321 18.6542 15.602 17.7772Z" fill="#011627"/>
</svg>
