<svg width="765" height="422" viewBox="0 0 765 422" fill="none" xmlns="http://www.w3.org/2000/svg">
<path d="M764.738 411.642L761.251 414.344C759.299 415.201 755.522 416.112 749.921 417.078C746.746 417.771 736.892 419.064 720.36 420.957C697.296 422.915 682.127 424.114 674.855 424.555C655.928 425.612 638.475 426.475 622.496 427.144C539.657 430.395 452.62 431.855 361.385 431.525C314.202 431.352 272.259 430.848 235.555 430.011C216.764 429.605 198.843 429.126 181.793 428.576C140.69 427.076 117.073 426.09 110.941 425.618C34.9313 421.189 -1.72856 416.452 0.961333 411.406C2.53765 408.945 10.793 406.669 25.7274 404.579C33.1945 403.534 42.3315 402.535 53.1381 401.583C56.4543 401.049 76.4213 399.726 113.039 397.612C145.847 395.903 181.838 394.567 221.012 393.602C271.373 392.559 302.544 392.045 314.526 392.06C336.5 391.856 359.27 391.746 382.836 391.729C427.047 391.752 468.902 392.12 508.401 392.835C556.744 393.878 585.042 394.608 593.297 395.025C611.28 395.641 628.673 396.343 645.477 397.132C662.463 397.983 677.637 398.883 691 399.834C721.237 402.297 737.205 403.835 738.905 404.446C754.762 406.646 763.373 409.045 764.738 411.642Z" fill="black" fill-opacity="0.145098"/>
<path d="M368.233 344.138C368.374 344.325 389.92 357.575 416.173 373.604L463.879 402.774L528.177 314.855L592.434 226.912L544.369 197.471L496.304 168.029L432.199 255.91C396.934 304.256 368.157 343.936 368.233 344.138ZM495.576 211.581C500.718 213.61 505.567 213.52 510.586 211.293C512.409 210.471 514.012 209.415 515.107 208.301C515.993 207.312 516.994 206.551 517.262 206.563C518.304 206.586 545.528 223.264 545.606 223.921C545.603 224.226 545.179 225.342 544.639 226.388C543.299 228.832 542.895 233.734 543.748 236.603C544.681 239.519 546.667 242.521 548.935 244.368L550.793 245.863L509.106 303.02L467.44 360.14L464.569 359.044C463.004 358.441 460.877 357.851 459.85 357.735C455.039 357.234 448.662 359.192 445.693 362.115C445.014 362.819 444.102 363.687 443.678 364.041L442.933 364.756L428.706 356.041C412.786 346.289 414.17 347.596 415.958 344.153C417.218 341.664 417.541 338.243 416.828 334.951C416.062 331.422 413.323 327.247 410.747 325.668L409.633 324.985L451.347 267.793L493.065 210.603L495.576 211.581Z" fill="#FE66C4"/>
<path d="M453.8 274.803C451.729 279.242 450.978 284.698 451.805 289.436C452.633 294.023 454.193 297.373 457.242 301.278C459.33 303.987 459.933 304.457 464.355 307.167C468.661 309.805 469.547 310.192 472.766 310.89C479.741 312.461 486.516 311.869 492.522 309.278C503.894 304.364 510.695 292.675 508.735 281.484C506.431 268.396 494.656 258.989 480.442 258.95C469.059 258.913 458.226 265.378 453.8 274.803Z" fill="#FF10A4"/>
<path d="M456.15 270.849C461.424 263.618 470.734 258.919 480.442 258.95C494.656 258.989 506.431 268.396 508.735 281.484C509.872 287.979 508.061 294.642 504.115 300.049C501.263 303.96 497.294 307.216 492.522 309.278C486.516 311.869 479.741 312.462 472.766 310.89C469.547 310.192 468.661 309.805 464.355 307.167C459.933 304.458 459.33 303.987 457.242 301.279C454.193 297.373 452.633 294.023 451.805 289.436C450.978 284.698 451.729 279.242 453.8 274.803C454.451 273.416 455.242 272.096 456.15 270.849ZM409.633 324.985L410.747 325.668C413.323 327.247 416.063 331.422 416.828 334.951C417.541 338.243 417.218 341.664 415.958 344.153C414.171 347.596 412.786 346.29 428.706 356.041L442.933 364.756L443.678 364.041C444.102 363.688 445.014 362.819 445.693 362.115C448.662 359.192 455.039 357.234 459.85 357.735C460.877 357.852 463.004 358.441 464.569 359.044L467.44 360.14L550.793 245.863L548.936 244.369C546.667 242.521 544.682 239.519 543.748 236.603C542.895 233.734 543.299 228.832 544.639 226.388C545.179 225.342 545.603 224.227 545.606 223.921C545.528 223.264 518.304 206.586 517.262 206.563C516.994 206.552 515.993 207.312 515.107 208.301C514.012 209.415 512.409 210.471 510.586 211.293C505.567 213.52 500.718 213.61 495.576 211.581L493.065 210.603L409.633 324.985Z" fill="#FFB0E1"/>
<path d="M464.011 275.042L467.684 276.941C467.369 279.252 467.765 281.466 468.871 283.583C469.976 285.7 471.699 287.364 474.038 288.573C475.537 289.348 477.127 289.817 478.809 289.98C480.455 290.125 482.05 290 483.593 289.606C485.137 289.212 486.583 288.547 487.931 287.61C489.258 286.707 490.345 285.568 491.19 284.195L491.376 283.893C491.696 283.529 492.104 283.298 492.598 283.2C493.092 283.102 493.576 283.176 494.051 283.422C494.562 283.687 494.898 284.081 495.057 284.605C495.217 285.129 495.152 285.625 494.863 286.094C494.575 286.563 494.144 286.871 493.572 287.017C493.001 287.163 492.459 287.103 491.947 286.839L486.813 295.178C487.982 295.783 489.2 296.192 490.466 296.405C491.675 296.633 492.912 296.698 494.176 296.601C495.383 296.519 496.571 296.272 497.74 295.861C498.872 295.431 499.928 294.851 500.907 294.121L505.074 296.275L510.271 287.835L505.611 285.426C505.651 283.326 505.111 281.347 503.991 279.488C502.908 277.647 501.306 276.179 499.186 275.082C497.687 274.307 496.097 273.838 494.415 273.675C492.769 273.53 491.174 273.655 489.631 274.049C488.087 274.443 486.641 275.109 485.294 276.046C483.967 276.949 482.88 278.087 482.034 279.461L481.849 279.762C481.528 280.126 481.103 280.347 480.572 280.426C480.078 280.524 479.612 280.46 479.174 280.233C478.662 279.968 478.308 279.565 478.112 279.022C477.953 278.498 478.017 278.002 478.306 277.533C478.595 277.064 479.043 276.766 479.651 276.639C480.223 276.493 480.765 276.552 481.277 276.817L486.412 268.477C484.292 267.381 482.074 266.874 479.758 266.958C477.442 267.04 475.314 267.64 473.374 268.756L469.207 266.602L464.011 275.042Z" fill="#FE66C4"/>
<path d="M464.036 275.987L467.708 277.887C467.394 280.197 467.79 282.411 468.896 284.528C470.001 286.645 471.724 288.309 474.063 289.518C475.562 290.293 477.152 290.762 478.835 290.925C480.48 291.07 482.075 290.945 483.618 290.55C485.162 290.157 486.608 289.491 487.956 288.555C489.283 287.651 490.369 286.513 491.215 285.14L491.401 284.838C491.721 284.474 492.128 284.243 492.623 284.146C493.116 284.047 493.601 284.121 494.076 284.367C494.588 284.631 494.923 285.026 495.082 285.55C495.242 286.074 495.177 286.57 494.888 287.039C494.6 287.507 494.169 287.815 493.598 287.961C493.026 288.107 492.484 288.048 491.972 287.784L486.838 296.123C488.007 296.728 489.225 297.137 490.49 297.35C491.7 297.578 492.937 297.643 494.201 297.546C495.408 297.464 496.596 297.217 497.765 296.806C498.897 296.376 499.953 295.796 500.933 295.066L505.099 297.22L510.296 288.78L505.636 286.37C505.676 284.271 505.136 282.292 504.016 280.432C502.933 278.592 501.331 277.123 499.211 276.027C497.713 275.252 496.122 274.783 494.44 274.62C492.794 274.475 491.199 274.6 489.656 274.994C488.112 275.388 486.666 276.054 485.319 276.99C483.991 277.894 482.905 279.032 482.059 280.405L481.874 280.707C481.554 281.07 481.128 281.292 480.597 281.371C480.103 281.469 479.637 281.404 479.198 281.178C478.687 280.914 478.333 280.51 478.137 279.967C477.978 279.443 478.043 278.947 478.332 278.478C478.62 278.009 479.068 277.711 479.677 277.584C480.248 277.438 480.79 277.497 481.302 277.761L486.437 269.422C484.317 268.326 482.1 267.819 479.783 267.902C477.468 267.985 475.339 268.585 473.399 269.702L469.232 267.547L464.036 275.987Z" fill="#FFB0E1"/>
<path d="M409.758 312.182C409.778 312.409 421.208 333.755 435.199 359.668L460.597 406.788L564.252 360.109L667.882 313.389L642.321 265.87L616.759 218.348L513.292 265.084C456.375 290.794 409.802 311.973 409.758 312.182ZM592.365 255.733C595.712 259.845 599.961 261.989 605.523 262.36C607.549 262.484 609.514 262.305 611.07 261.841C612.377 261.391 613.659 261.191 613.885 261.324C614.773 261.821 629.251 288.738 628.959 289.344C628.791 289.606 627.814 290.378 626.776 291.037C624.283 292.539 621.258 296.599 620.431 299.474C619.649 302.428 619.73 305.936 620.687 308.576L621.48 310.722L554.191 341.12L486.942 371.498L485.054 369.232C484.028 367.993 482.508 366.508 481.683 365.936C477.789 363.298 471.198 362.071 467.032 363.243C466.059 363.541 464.797 363.876 464.236 363.987L463.2 364.266L455.635 350.2C447.168 334.46 447.654 336.226 451.082 334.062C453.53 332.484 455.677 329.671 456.855 326.493C458.117 323.086 458.023 318.214 456.654 315.666L456.061 314.565L523.393 284.149L590.724 253.735L592.365 255.733Z" fill="#FE66C4"/>
<path d="M521.693 291.343C517.477 294.238 513.848 298.621 511.98 303.102C510.195 307.453 509.717 311.069 510.227 315.849C510.558 319.151 510.822 319.834 513.174 324.207C515.465 328.466 516.02 329.207 518.426 331.286C523.61 335.843 529.8 338.434 536.415 338.942C548.945 339.897 561.212 332.89 565.622 322.3C570.767 309.91 565.702 296.368 553.414 289.822C543.577 284.574 530.667 285.209 521.693 291.343Z" fill="#FF10A4"/>
<path d="M525.884 288.996C534.397 285.149 545.024 285.347 553.414 289.822C565.702 296.368 570.767 309.91 565.622 322.3C563.062 328.445 557.859 333.386 551.491 336.261C546.887 338.341 541.674 339.342 536.415 338.942C529.8 338.434 523.61 335.843 518.426 331.286C516.02 329.207 515.465 328.465 513.175 324.207C510.823 319.834 510.558 319.151 510.227 315.849C509.717 311.069 510.195 307.453 511.98 303.102C513.848 298.62 517.477 294.238 521.693 291.343C523.013 290.442 524.418 289.66 525.884 288.996ZM456.061 314.565L456.654 315.666C458.023 318.214 458.117 323.086 456.855 326.493C455.677 329.67 453.53 332.484 451.082 334.062C447.654 336.226 447.168 334.46 455.635 350.2L463.2 364.266L464.236 363.987C464.797 363.876 466.059 363.541 467.032 363.243C471.198 362.071 477.789 363.298 481.683 365.936C482.508 366.508 484.028 367.993 485.054 369.232L486.942 371.498L621.48 310.721L620.687 308.576C619.73 305.936 619.649 302.428 620.431 299.474C621.258 296.599 624.283 292.539 626.776 291.037C627.814 290.378 628.791 289.606 628.959 289.344C629.251 288.738 614.773 261.821 613.885 261.324C613.659 261.191 612.377 261.391 611.07 261.841C609.514 262.305 607.549 262.484 605.523 262.36C599.961 261.989 595.712 259.845 592.365 255.732L590.724 253.735L456.061 314.565Z" fill="#FFB0E1"/>
<path d="M534.364 290.174L534.405 294.039C532.065 294.945 530.17 296.365 528.722 298.301C527.274 300.238 526.564 302.436 526.59 304.897C526.607 306.474 526.959 307.971 527.646 309.387C528.332 310.766 529.247 311.969 530.392 312.997C531.536 314.025 532.888 314.84 534.447 315.441C535.965 316.043 537.584 316.336 539.304 316.32L539.682 316.318C540.187 316.39 540.608 316.597 540.948 316.94C541.287 317.284 541.46 317.705 541.465 318.204C541.471 318.743 541.266 319.206 540.85 319.594C540.435 319.983 539.933 320.18 539.346 320.185C538.758 320.19 538.253 320.003 537.828 319.622C537.405 319.241 537.19 318.782 537.185 318.243L526.735 318.338C526.748 319.568 526.971 320.739 527.402 321.85C527.792 322.924 528.348 323.939 529.072 324.893C529.753 325.81 530.581 326.63 531.554 327.352C532.526 328.035 533.602 328.583 534.782 328.995L534.829 333.38L545.405 333.283L545.352 328.38C547.355 327.362 548.955 325.943 550.153 324.125C551.351 322.345 551.938 320.34 551.914 318.11C551.897 316.533 551.545 315.036 550.858 313.62C550.172 312.241 549.257 311.037 548.112 310.009C546.968 308.982 545.616 308.167 544.057 307.566C542.539 306.965 540.92 306.672 539.2 306.687L538.822 306.691C538.318 306.618 537.896 306.391 537.556 306.01C537.217 305.667 537.044 305.264 537.04 304.803C537.034 304.265 537.238 303.782 537.653 303.355C538.069 302.967 538.571 302.77 539.158 302.764C539.745 302.759 540.251 302.967 540.676 303.386C541.099 303.766 541.314 304.226 541.32 304.765L551.769 304.67C551.745 302.439 551.115 300.426 549.878 298.63C548.642 296.833 547.011 295.443 544.986 294.462L544.939 290.078L534.364 290.174Z" fill="#FE66C4"/>
<path d="M533.483 290.667L533.524 294.531C531.184 295.437 529.29 296.858 527.842 298.794C526.394 300.73 525.683 302.929 525.71 305.39C525.726 306.966 526.078 308.463 526.765 309.88C527.452 311.258 528.367 312.461 529.511 313.49C530.655 314.518 532.007 315.332 533.567 315.934C535.084 316.536 536.703 316.828 538.424 316.812L538.802 316.81C539.306 316.882 539.727 317.09 540.067 317.432C540.406 317.775 540.579 318.197 540.585 318.697C540.59 319.235 540.385 319.698 539.97 320.087C539.554 320.475 539.053 320.672 538.465 320.678C537.878 320.683 537.372 320.495 536.948 320.114C536.524 319.733 536.309 319.274 536.304 318.736L525.855 318.83C525.868 320.061 526.09 321.232 526.522 322.343C526.911 323.417 527.467 324.431 528.191 325.386C528.873 326.302 529.7 327.122 530.673 327.844C531.646 328.527 532.722 329.075 533.902 329.488L533.948 333.871L544.524 333.776L544.471 328.873C546.474 327.855 548.075 326.436 549.272 324.617C550.47 322.838 551.057 320.833 551.033 318.602C551.016 317.025 550.664 315.529 549.978 314.112C549.291 312.734 548.376 311.53 547.231 310.501C546.088 309.474 544.736 308.66 543.176 308.059C541.659 307.457 540.04 307.164 538.319 307.18L537.942 307.183C537.437 307.111 537.015 306.884 536.675 306.502C536.336 306.159 536.164 305.757 536.159 305.295C536.153 304.757 536.358 304.275 536.773 303.848C537.189 303.459 537.69 303.262 538.278 303.257C538.865 303.252 539.371 303.459 539.795 303.878C540.218 304.259 540.433 304.718 540.439 305.257L550.889 305.162C550.865 302.931 550.234 300.918 548.998 299.122C547.761 297.325 546.131 295.936 544.106 294.954L544.058 290.571L533.483 290.667Z" fill="#FFB0E1"/>
<path d="M428.052 302.608C427.963 302.821 428.213 326.598 428.622 355.505L429.326 408.057L544.814 406.972L660.3 405.843L659.636 352.866L658.975 299.89L543.63 301.1C480.176 301.765 428.191 302.438 428.052 302.608ZM619.357 323.955C620.437 328.989 623.259 332.605 628.1 335.14C629.87 336.054 631.727 336.67 633.349 336.867C634.74 336.978 635.991 337.306 636.132 337.514C636.699 338.315 637.072 368.321 636.525 368.753C636.248 368.923 635.004 369.232 633.757 369.415C630.8 369.784 626.158 372.249 624.058 374.515C621.96 376.869 620.381 380.067 620 382.826L619.704 385.074L544.689 385.866L469.718 386.652L469.083 383.862C468.741 382.338 468.069 380.397 467.594 379.555C465.325 375.634 459.958 371.921 455.649 371.328C454.632 371.212 453.335 371.014 452.777 370.892L451.711 370.734L451.516 355.053C451.297 337.506 450.902 339.291 455.014 338.697C457.966 338.242 461.227 336.554 463.789 334.154C466.532 331.58 468.743 327.149 468.709 324.31L468.693 323.081L543.756 322.292L618.818 321.505L619.357 323.955Z" fill="#FE66C4"/>
<path d="M538.832 328.108C533.665 329.05 528.328 331.567 524.532 334.871C520.87 338.089 518.736 341.162 516.943 345.674C515.685 348.784 515.602 349.505 515.663 354.379C515.722 359.126 515.873 360.014 517.064 362.842C519.592 369.003 523.955 373.791 529.682 376.867C540.533 382.686 554.9 381.221 563.866 373.413C574.346 364.274 576.16 350.056 568.161 339.289C561.76 330.662 549.817 326.126 538.832 328.108Z" fill="#FF10A4"/>
<path d="M543.718 327.649C553.21 327.548 562.701 331.932 568.161 339.289C576.16 350.056 574.346 364.274 563.866 373.413C558.662 377.944 551.641 380.341 544.543 380.414C539.41 380.468 534.235 379.308 529.682 376.867C523.955 373.791 519.592 369.003 517.064 362.842C515.873 360.014 515.722 359.126 515.663 354.379C515.602 349.505 515.685 348.784 516.943 345.674C518.736 341.162 520.87 338.089 524.531 334.871C528.328 331.567 533.665 329.05 538.832 328.108C540.447 327.817 542.084 327.668 543.718 327.649ZM468.693 323.081L468.709 324.31C468.743 327.149 466.532 331.58 463.789 334.154C461.228 336.553 457.966 338.242 455.014 338.697C450.902 339.291 451.297 337.506 451.516 355.053L451.711 370.734L452.777 370.892C453.335 371.014 454.632 371.212 455.649 371.328C459.958 371.921 465.325 375.634 467.594 379.555C468.069 380.397 468.741 382.338 469.083 383.861L469.718 386.652L619.704 385.074L620 382.826C620.381 380.067 621.96 376.869 624.058 374.515C626.158 372.249 630.8 369.784 633.757 369.415C635.004 369.232 636.248 368.923 636.525 368.753C637.072 368.321 636.699 338.315 636.132 337.514C635.991 337.306 634.74 336.978 633.349 336.867C631.727 336.67 629.87 336.054 628.1 335.14C623.259 332.605 620.437 328.989 619.357 323.955L618.818 321.505L468.693 323.081Z" fill="#FFB0E1"/>
<path d="M540.464 332.711L540.507 336.576C538.166 337.481 536.272 338.902 534.823 340.838C533.376 342.775 532.665 344.974 532.692 347.435C532.708 349.011 533.06 350.508 533.747 351.924C534.433 353.302 535.349 354.506 536.493 355.534C537.637 356.562 538.989 357.377 540.549 357.978C542.066 358.58 543.685 358.873 545.405 358.857L545.783 358.855C546.287 358.927 546.709 359.134 547.049 359.477C547.388 359.82 547.561 360.242 547.566 360.742C547.572 361.28 547.367 361.743 546.952 362.131C546.536 362.52 546.034 362.717 545.447 362.722C544.86 362.728 544.354 362.54 543.93 362.158C543.506 361.778 543.291 361.319 543.286 360.78L532.836 360.875C532.849 362.106 533.072 363.276 533.503 364.388C533.893 365.461 534.449 366.475 535.173 367.43C535.855 368.347 536.682 369.166 537.654 369.887C538.627 370.572 539.704 371.12 540.883 371.532L540.931 375.916L551.506 375.822L551.453 370.917C553.456 369.899 555.057 368.481 556.254 366.663C557.452 364.883 558.039 362.877 558.015 360.647C557.998 359.07 557.646 357.573 556.96 356.156C556.273 354.778 555.358 353.575 554.214 352.547C553.069 351.518 551.718 350.704 550.158 350.103C548.641 349.502 547.022 349.209 545.301 349.224L544.924 349.228C544.42 349.155 543.998 348.928 543.658 348.547C543.318 348.204 543.146 347.801 543.141 347.34C543.135 346.801 543.34 346.319 543.755 345.892C544.17 345.503 544.672 345.306 545.259 345.301C545.847 345.295 546.353 345.502 546.777 345.922C547.201 346.303 547.416 346.763 547.421 347.302L557.87 347.207C557.846 344.976 557.216 342.962 555.98 341.166C554.743 339.37 553.112 337.981 551.087 336.999L551.04 332.615L540.464 332.711Z" fill="#FE66C4"/>
<path d="M539.584 333.204L539.626 337.068C537.285 337.974 535.391 339.395 533.943 341.331C532.495 343.267 531.784 345.466 531.811 347.927C531.828 349.504 532.179 351 532.866 352.417C533.553 353.795 534.468 354.998 535.612 356.026C536.757 357.054 538.109 357.869 539.668 358.47C541.185 359.072 542.804 359.366 544.525 359.35L544.903 359.347C545.407 359.419 545.829 359.627 546.168 359.97C546.508 360.313 546.68 360.734 546.686 361.234C546.691 361.772 546.486 362.236 546.071 362.624C545.655 363.013 545.154 363.209 544.566 363.215C543.979 363.22 543.473 363.032 543.05 362.651C542.626 362.271 542.411 361.811 542.405 361.273L531.955 361.367C531.969 362.598 532.191 363.769 532.623 364.88C533.012 365.953 533.569 366.968 534.293 367.923C534.974 368.839 535.801 369.659 536.775 370.381C537.747 371.065 538.823 371.613 540.003 372.025L540.05 376.409L550.625 376.313L550.572 371.411C552.576 370.392 554.176 368.973 555.374 367.155C556.572 365.375 557.159 363.37 557.135 361.139C557.118 359.562 556.766 358.066 556.079 356.649C555.393 355.27 554.477 354.067 553.333 353.039C552.189 352.011 550.837 351.197 549.278 350.596C547.76 349.994 546.141 349.701 544.421 349.716L544.043 349.721C543.539 349.648 543.116 349.421 542.777 349.04C542.438 348.697 542.265 348.294 542.26 347.833C542.254 347.294 542.459 346.811 542.874 346.385C543.289 345.996 543.791 345.799 544.379 345.794C544.966 345.788 545.472 345.995 545.896 346.415C546.32 346.795 546.535 347.255 546.54 347.794L556.99 347.699C556.966 345.468 556.335 343.455 555.099 341.658C553.862 339.862 552.232 338.473 550.207 337.491L550.159 333.107L539.584 333.204Z" fill="#FFB0E1"/>
<path d="M363.315 25.5525C359.779 28.4978 358.654 29.4182 356.083 31.4063C352.627 34.0577 346.359 39.1381 345.837 39.6535C345.636 39.8747 343.828 41.3105 341.82 42.8208C339.851 44.3302 337.922 45.8029 337.561 46.1346C337.239 46.4287 335.793 47.6068 334.347 48.7482C332.94 49.8895 328.802 53.2033 325.186 56.1121C321.57 59.0206 317.753 62.0396 316.749 62.8498C314.338 64.6908 310.441 67.82 309.074 68.9611C306.905 70.8391 304.816 72.4961 302.445 74.2635C301.119 75.2942 298.387 77.43 296.378 79.0495C294.41 80.7062 290.994 83.4309 288.785 85.1619C284.727 88.3651 281.713 90.8316 280.548 91.7889C280.227 92.0834 278.74 93.2619 277.334 94.3665C267.169 102.282 263.995 105.228 264.798 105.927C264.919 106.037 277.013 106.148 291.678 106.148L318.315 106.148L318.757 107.032C319.119 107.694 318.998 108.541 318.396 110.787C317.954 112.407 317.472 114.579 317.351 115.684C317.191 116.788 316.869 118.003 316.668 118.372C316.427 118.74 316.025 120.249 315.704 121.722C315.383 123.195 314.7 125.772 314.137 127.502C313.575 129.233 312.932 131.369 312.651 132.289C312.41 133.209 311.847 134.719 311.445 135.676C311.003 136.634 310.682 137.665 310.682 137.996C310.682 138.327 310.401 139.137 310.12 139.763C309.517 140.978 308.311 144.071 307.226 147.09C306.905 148.047 306.463 148.931 306.262 149.041C306.021 149.152 305.861 149.52 305.861 149.852C305.861 150.403 305.218 151.803 303.048 156.037C302.606 156.847 301.441 159.167 300.437 161.192C299.432 163.217 298.428 165.131 298.187 165.426C297.986 165.72 297.624 166.383 297.423 166.898C297.182 167.414 296.861 168.076 296.66 168.371C296.419 168.666 295.615 170.065 294.812 171.5C293.968 172.9 292.883 174.741 292.361 175.551C291.839 176.361 291.075 177.613 290.593 178.312C289.348 180.3 288.504 181.552 284.727 186.965C284.325 187.554 283.803 188.327 283.562 188.695C282.879 189.726 278.982 194.918 278.098 195.948C271.87 203.349 270.102 205.447 269.62 205.926C269.339 206.257 266.968 208.724 264.397 211.449C258.933 217.229 249.29 226.029 243.022 230.999C240.612 232.914 238.161 234.865 237.598 235.344C237.036 235.823 236.112 236.485 235.549 236.78C234.987 237.111 233.38 238.253 231.933 239.284C227.875 242.265 219.92 247.273 213.934 250.697C212.527 251.47 210.277 252.795 208.911 253.569C207.545 254.379 205.054 255.704 203.407 256.477C201.76 257.287 199.269 258.465 197.903 259.128C196.537 259.791 195.09 260.417 194.688 260.527C194.287 260.675 193.684 260.933 193.363 261.117C191.072 262.479 174.037 268.848 171.064 269.475C170.421 269.622 169.698 269.843 169.457 269.99C169.256 270.174 168.05 270.542 166.845 270.837C165.64 271.168 163.912 271.684 163.028 271.978C162.144 272.273 161.019 272.53 160.497 272.567C160.015 272.567 158.93 272.825 158.086 273.157C157.283 273.451 155.796 273.856 154.792 274.04C153.787 274.188 151.819 274.592 150.372 274.923C145.109 276.102 140.488 276.949 138.118 277.169C136.792 277.317 134.622 277.648 133.297 277.906C131.971 278.163 129.158 278.495 127.069 278.642C124.979 278.752 121.002 279.121 118.23 279.379C112.404 280.004 95.8909 280.115 91.1096 279.563C89.3417 279.379 84.8419 278.937 81.0651 278.642C77.3286 278.348 73.5919 277.942 72.8286 277.722C68.9717 276.69 66.079 278.053 65.7175 281.146C65.2753 284.533 66.4405 285.159 79.8599 288.804C81.4269 289.209 83.7572 289.872 85.0831 290.277C86.4089 290.645 87.775 290.976 88.0965 290.976C88.4178 290.976 89.8643 291.308 91.3107 291.676C94.5247 292.559 98.6229 293.48 102.36 294.106C103.926 294.364 106.699 294.879 108.587 295.21C110.475 295.542 113.368 296.021 115.016 296.315C116.663 296.61 119.917 297.051 122.248 297.235C124.578 297.456 127.23 297.788 128.154 297.972C129.962 298.377 136.752 298.818 151.417 299.518C159.452 299.886 162.506 299.85 174.318 299.298C181.791 298.929 190.309 298.34 193.162 297.972C196.054 297.567 199.671 297.162 201.197 297.052C202.764 296.904 205.014 296.61 206.22 296.315C207.425 296.057 209.474 295.726 210.8 295.579C212.085 295.431 213.813 295.1 214.617 294.842C215.42 294.585 217.268 294.253 218.675 294.106C220.121 293.959 221.849 293.628 222.572 293.37C223.295 293.075 224.741 292.744 225.786 292.634C226.831 292.486 228.759 292.081 230.045 291.676C231.291 291.308 232.657 290.977 233.059 290.977C233.42 290.977 234.907 290.645 236.353 290.203C241.255 288.768 243.786 288.068 245.192 287.847C245.956 287.7 246.799 287.442 247 287.294C247.241 287.111 248.206 286.816 249.21 286.558C250.215 286.337 251.982 285.822 253.107 285.417C254.272 285.012 256.281 284.349 257.527 283.907C261.866 282.471 270.505 279.306 274.522 277.649C277.536 276.397 286.335 272.568 287.179 272.126C287.621 271.868 289.348 271.058 290.995 270.285C292.643 269.511 294.29 268.701 294.611 268.517C294.933 268.333 297.062 267.229 299.352 266.051C301.643 264.872 304.013 263.621 304.575 263.289C305.178 262.921 306.183 262.369 306.825 262.037C307.468 261.706 308.915 260.859 309.999 260.16C311.044 259.46 312.249 258.797 312.611 258.65C313.013 258.503 314.137 257.84 315.102 257.177C317.03 255.888 319.602 254.232 323.137 252.06C324.343 251.323 325.629 250.476 325.95 250.219C326.272 249.961 327.718 248.893 329.164 247.899C330.611 246.905 331.977 245.911 332.258 245.69C332.499 245.506 334.789 243.812 337.28 241.898C343.468 237.222 345.517 235.528 353.874 227.833C362.833 219.622 364.401 218.076 370.146 211.559C377.096 203.754 378.623 201.802 385.454 192.451C389.351 187.075 389.712 186.523 392.846 181.442C394.092 179.417 395.257 177.502 395.458 177.208C396.02 176.361 403.092 163.217 403.855 161.56C404.257 160.75 404.94 159.351 405.422 158.43C405.864 157.509 406.386 156.368 406.507 155.853C406.668 155.337 406.989 154.712 407.23 154.454C407.632 154.012 408.154 152.797 409.721 148.673C410.042 147.863 410.846 145.801 411.529 144.071C412.212 142.341 413.015 140.094 413.297 139.1C413.618 138.069 414.06 136.744 414.301 136.155C415.225 133.762 417.274 126.729 418.038 123.452C418.239 122.532 418.68 120.949 418.962 119.955C419.283 118.924 419.725 116.936 419.926 115.5C420.167 114.064 420.609 111.892 420.971 110.714C421.292 109.535 421.573 108.21 421.573 107.805C421.573 106.148 421.332 106.148 445.198 106.148C465.689 106.148 467.859 106.074 467.618 105.559C467.497 105.228 467.376 104.859 467.376 104.675C467.376 104.418 460.345 98.6003 454.921 94.3662C453.515 93.2617 452.028 92.0834 451.707 91.7887C450.542 90.8317 447.529 88.3649 443.471 85.1617C441.26 83.431 437.845 80.7064 435.877 79.0494C433.868 77.4295 431.136 75.2937 429.81 74.263C427.439 72.4958 425.35 70.8389 423.18 68.9611C421.774 67.7828 417.877 64.6536 415.506 62.8497C414.462 62.0389 411.488 59.6828 408.837 57.5474C406.225 55.4123 402.931 52.7614 401.524 51.6563C398.913 49.5949 397.908 48.7482 395.457 46.7232C394.694 46.0973 392.444 44.3302 390.435 42.8206C388.466 41.3103 386.738 39.9482 386.618 39.8378C386.216 39.4328 378.703 33.3577 376.172 31.4065C373.6 29.4181 372.475 28.5346 368.94 25.5525C367.815 24.6318 366.73 24.0429 366.127 24.0429C365.525 24.0429 364.44 24.6318 363.315 25.5525Z" fill="#FE66F4"/>
<path d="M431.859 119.66C431.738 120.249 431.537 121.354 431.417 122.164C431.256 122.974 430.895 124.373 430.613 125.293C430.051 126.877 429.368 129.491 428.243 133.799C427.962 134.94 427.6 136.081 427.399 136.302C427.239 136.56 426.756 137.886 426.355 139.248C424.989 143.96 424.386 145.728 423.984 146.464C423.582 147.274 422.216 150.809 421.534 152.908C421.293 153.607 420.85 154.454 420.529 154.785C420.208 155.08 419.967 155.559 419.967 155.853C419.967 156.295 418.681 159.24 417.114 162.333C416.712 163.18 416.35 163.953 416.35 164.063C416.35 164.653 408.516 179.27 406.266 182.914C405.623 183.908 404.82 185.234 404.498 185.86C404.177 186.449 403.453 187.627 402.931 188.438C402.369 189.247 401.565 190.499 401.123 191.198C400.681 191.898 399.677 193.408 398.913 194.512C396.985 197.237 397.025 197.163 394.172 201.066C392.766 202.944 391.44 204.785 391.239 205.153C390.998 205.484 390.556 206.074 390.235 206.405C389.914 206.736 389.19 207.583 388.628 208.319C388.065 209.056 386.579 210.933 385.253 212.443C383.967 213.989 382.481 215.831 381.959 216.53L380.994 217.819L380.994 313.952C380.995 388.252 381.115 410.233 381.477 410.564C381.839 410.896 388.187 411.006 407.553 411.006C430.293 411.006 433.227 410.932 433.789 410.417C434.352 409.901 434.432 396.168 434.431 265.205C434.431 173.268 434.27 120.176 434.029 119.587C433.506 118.298 432.14 118.335 431.859 119.66Z" fill="#FE66F4"/>
<path d="M352.427 245.174C352.146 245.506 350.258 247.052 348.249 248.562C346.28 250.108 344.191 251.728 343.709 252.207C343.187 252.649 341.941 253.569 340.977 254.232C339.972 254.895 337.642 256.515 335.794 257.84C333.946 259.166 331.937 260.565 331.334 260.97C327.999 263.216 314.419 271.647 312.611 272.568C312.009 272.862 310.16 273.856 308.473 274.776C306.785 275.697 304.776 276.728 304.013 277.059C303.29 277.428 302.567 278.09 302.446 278.532C302.325 279.011 302.285 308.944 302.326 345.1L302.446 410.821L327.759 410.932C341.701 410.969 353.473 410.932 353.995 410.821L354.879 410.637L354.798 327.685L354.677 244.769L353.834 244.659C353.392 244.585 352.749 244.843 352.427 245.174Z" fill="#FE66F4"/>
<path d="M273.157 290.866C272.755 290.977 271.83 291.382 271.147 291.75C270.464 292.118 269.58 292.449 269.178 292.449C268.736 292.449 267.933 292.707 267.37 293.001C266.326 293.517 264.518 294.18 260.862 295.284C259.857 295.579 258.531 296.058 257.848 296.316C256.442 296.904 253.429 297.825 250.616 298.524C249.532 298.819 247.724 299.298 246.599 299.629C244.59 300.218 241.857 300.954 236.554 302.317C235.027 302.722 232.938 303.201 231.934 303.311C230.929 303.459 229.804 303.753 229.403 303.937C229.001 304.121 227.635 304.415 226.389 304.6C225.063 304.821 223.898 305.226 223.617 305.594C222.813 306.551 222.854 410.011 223.657 410.6C224.019 410.895 231.251 410.969 249.854 410.932L275.527 410.821L275.527 350.807C275.527 291.051 275.527 290.793 274.723 290.719C274.282 290.719 273.558 290.756 273.157 290.866Z" fill="#FE66F4"/>
<path d="M65.878 297.493C65.7173 297.603 65.597 323.119 65.5972 354.157V410.637L66.5212 410.821C67.0034 410.931 78.8156 410.968 92.7172 410.931L118.029 410.821L118.11 360.011C118.19 332.066 118.069 308.981 117.868 308.723C117.667 308.392 116.181 308.06 114.172 307.876C112.324 307.692 109.913 307.287 108.788 307.029C107.703 306.735 105.614 306.404 104.168 306.256C102.721 306.109 101.114 305.814 100.552 305.63C99.9892 305.446 98.3015 305.041 96.735 304.783C91.9938 303.973 80.9448 301.285 75.2395 299.591C74.2351 299.26 72.5475 298.818 71.4225 298.561C70.3377 298.303 69.0119 297.898 68.5297 297.677C67.5655 297.198 66.2799 297.088 65.878 297.493Z" fill="#FE66F4"/>
<path d="M190.349 309.938C185.488 310.711 166.685 311.338 155.555 311.117C150.091 311.006 145.471 311.043 145.189 311.19C144.868 311.374 144.787 324.334 144.828 361.152L144.949 410.821L170.622 410.932C189.225 410.968 196.457 410.895 196.819 410.6C197.582 410.011 197.662 310.527 196.898 309.828C196.296 309.275 194.528 309.312 190.349 309.938Z" fill="#FE66F4"/>
<path d="M140.195 349.969L139.863 350.346C81.8435 408.905 81.9542 408.78 140.195 349.969Z" fill="#49494D"/>
<path d="M374.188 193.073C377.822 191.994 381.553 191.971 385.381 193.004C388.889 193.998 391.526 195.822 393.295 198.477C395.287 201.382 396.242 206.392 396.162 213.507L390.821 218.314L365.297 210.106C363.807 206.401 363.859 203.167 365.455 200.405C367.489 196.727 370.397 194.283 374.179 193.075" fill="#9D491A"/>
<path d="M307.959 401.406L311.317 411.294C313.474 413.143 314.696 414.75 314.983 416.115C315.434 418.238 314.621 420.598 312.545 423.193C310.955 425.068 309.19 426.278 307.251 426.823C306.63 427.004 305.85 427.14 304.911 427.231C299.422 427.326 296.272 427.528 295.46 427.837C294.886 427.816 291.626 428.863 285.681 430.978C284.617 431.302 283.584 431.558 282.583 431.745C278.283 432.576 274.017 431.446 269.784 428.356C265.736 425.042 264.727 421.977 266.758 419.163C267.395 418.42 268.186 417.867 269.131 417.505C269.678 417.299 270.191 417.141 270.669 417.03C273.493 416.483 275.186 416.122 275.75 415.948C277.034 415.551 278.036 415.071 278.754 414.506C280.668 413.03 282.22 410.25 283.41 406.166L307.867 401.424" fill="black"/>
<path d="M283.56 403.464C283.799 403.772 283.799 403.773 283.56 403.467L283.56 403.464ZM283.754 403.723L289.17 410.894C290.652 410.064 291.556 409.922 291.881 410.467C292.266 410.855 292.236 412.152 291.792 414.359L289.189 410.92L289.142 410.94C288.295 411.446 287.101 412.309 285.558 413.528C278.632 419.231 275.015 422.165 274.707 422.33C273.009 423.627 271.636 424.519 270.588 425.006C268.929 425.834 267.542 425.771 266.425 424.817C263.273 421.798 261.311 419.82 260.539 418.884C259.39 417.562 258.689 416.464 258.436 415.591C257.927 414.131 258.899 412.842 261.351 411.725C262.408 411.22 264.08 410.599 266.367 409.861C267.232 409.557 271.179 408.359 278.209 406.266C279.494 405.87 280.48 405.55 281.168 405.305C283.083 404.632 283.948 404.114 283.761 403.75" fill="black"/>
<path d="M358.681 354.258L364.873 356.105L365.164 361.334L365.159 361.341L358.397 361.521L358.681 354.262" fill="black"/>
<path d="M309.878 395.407L422.354 402.759L421.41 419.955L352.249 424.269L311.216 413.064L309.878 395.418" fill="black"/>
<path d="M366.364 390.871L402.123 393.814L422.688 402.865L351.421 407.486L301.48 397.472L332.807 392.311L366.309 390.873" fill="black"/>
<path d="M416.064 305.621C419.019 323.073 418.307 334.62 413.927 340.264C412.215 342.526 409.553 344.308 405.941 345.609C404.125 346.437 398.796 347.528 389.955 348.881C388.663 349.165 387.506 349.532 386.487 349.979C385.305 350.303 382.824 352.045 379.044 355.205C378.152 355.779 377.331 356.195 376.582 356.454C374.09 357.467 369.489 357.667 362.779 357.054C339.518 354.081 316.965 351.494 295.119 349.294L415.987 305.649" fill="black"/>
<path d="M339.968 277.729L354.386 281.903C350.377 294.804 347.064 302.839 344.447 306.007C342.124 309.168 339.487 310.181 336.537 309.045C333.272 307.528 331.221 304.625 330.384 300.334C329.427 294.806 332.613 287.282 339.943 277.762" fill="#FFB48E"/>
<path d="M400.888 235.337L401.934 239.258L421.777 249.31C426.777 259.255 429.12 266.838 428.805 272.058C428.843 274.411 428.529 277.776 427.862 282.152L402.839 280.924C405.991 298.272 407.367 309.696 406.968 315.195C406.817 322.567 404.927 329.31 401.296 335.424L343.946 305.276L349.482 281.684L337.637 279.041C340.539 268.699 344.276 259.783 348.849 252.292L370.002 242.685L370.548 237.931L400.735 235.35" fill="#FFFCB5"/>
<path d="M301.734 348.189L298.284 379.297L313.274 348.193H301.968M355.652 305.274C369.076 305.178 379.997 308.183 388.414 314.29C398.794 321.652 402.992 329.236 401.009 337.042C387.563 339.357 378.69 341.26 374.388 342.751C370.839 343.288 362.487 346.344 349.333 351.92C347.594 352.486 345.076 352.892 341.779 353.137C340.01 359.351 338.322 363.727 336.717 366.265C324.507 381.146 317.944 389.868 317.029 392.432C315.673 394.55 313.67 399.811 311.02 408.215L277.827 406.399C273.633 364.653 271.337 342.323 270.941 339.411C270.499 336.1 270.918 332.898 272.2 329.804C278.377 316.481 306.106 308.305 355.385 305.277L355.652 305.274Z" fill="#102A52"/>
<path d="M401.618 277.903L426.841 281.224C425.861 287.71 424.581 292.939 423.003 296.91C421.648 300.488 419.028 305.04 415.144 310.566L398.264 314.154C395.789 314.666 394.421 314.886 394.159 314.813C391.939 314.553 390.042 314.39 388.468 314.323L368.809 313.689C364.949 313.521 361.952 313.318 359.819 313.083C355.048 312.552 352.667 311.638 352.675 310.339C349.755 313.015 347.007 314.261 344.43 314.077C342.366 313.889 340.395 312.806 338.516 310.826C336.845 308.915 336.186 307.09 336.542 305.35C337.629 302.347 341.526 300.531 348.233 299.902C350.298 299.751 352.51 299.873 354.868 300.268C355.877 300.375 359.095 301.145 364.523 302.578C365.679 302.835 366.661 303.006 367.468 303.09C369.615 303.347 371.941 303.261 374.445 302.834C378.094 302.368 386.764 299.527 400.454 294.311C399.072 290.927 399.455 285.477 401.604 277.961" fill="#FFB48E"/>
<path d="M264.328 274.406L317.613 275.423L342.151 313.07L376.885 312.286L376.896 315.678L343.816 321.3L291.099 318.812L289.009 313.069L264.352 274.448" fill="black"/>
<path d="M360.716 312.053C361.081 311.658 363.233 311.222 367.173 310.743C371.875 310.207 374.952 310.022 376.406 310.186C377.013 310.247 377.485 310.396 377.823 310.636L378.613 314.009C377.136 313.97 374.747 313.836 371.448 313.605C368.722 313.417 366.544 313.235 364.914 313.057C361.895 312.729 360.494 312.397 360.711 312.06" fill="#FFBE80"/>
<path d="M357.407 360.255L365.977 360.346L366.039 397.531L355.976 397.357L357.406 360.284" fill="black"/>
<path d="M310.789 407.704C312.039 409.44 312.902 410.802 313.376 411.788C313.881 412.782 314.422 414.251 314.997 416.193L309.322 414.612L308.461 408.478L310.779 407.707" fill="black"/>
<path d="M404.649 328.316L400.955 337.276C401.174 335.519 401.335 334.327 401.439 333.7L404.647 328.319" fill="black"/>
<path d="M383.209 201.899C385.808 201.942 387.429 202.578 388.073 203.807C388.276 204.206 388.389 204.715 388.411 205.333C388.45 205.559 388.383 206.608 388.209 208.479C388.207 208.932 388.244 209.242 388.318 209.408C388.409 209.677 388.583 209.908 388.84 210.103L390.445 211.059C390.675 211.281 390.826 211.584 390.896 211.97C390.971 212.382 390.987 212.856 390.944 213.39L390.622 215.967L392.399 216.263C392.138 214.924 393.204 213.456 395.597 211.859C396.646 211.318 397.318 211.461 397.611 212.288C398.025 214.012 397.75 216.443 396.786 219.581C396.483 220.454 396.14 221.114 395.758 221.56C395.559 221.867 394.955 222.315 393.946 222.904C393.79 223.029 393.654 223.186 393.537 223.374C393.251 223.879 393.075 224.59 393.008 225.506C392.755 229.104 393.643 232.67 395.673 236.204L383.362 240.353L376.293 250.792L373.383 241.615L372.66 235.008C370.002 232.559 367.732 228.483 365.85 222.782C365.662 222.057 365.539 221.316 365.481 220.559L365.326 215.903L364.864 210.282C364.775 208.729 364.797 207.489 364.93 206.561C365.121 204.804 365.9 203.776 367.27 203.479C367.659 203.378 368.167 203.32 368.794 203.305C371.811 203.439 373.583 203.448 374.11 203.331C374.561 203.348 376.756 202.942 380.694 202.114C381.615 201.967 382.451 201.895 383.201 201.898" fill="#FFB48E"/>
<path d="M389.605 230.766C389.185 231.227 389.18 231.232 389.593 230.779L389.605 230.766ZM389.264 231.14L381.52 239.792L373.555 235.331C376.532 236.707 379.2 237.084 381.559 236.461C383.837 235.84 386.401 234.071 389.249 231.155" fill="black" fill-opacity="0.235294"/>
<path d="M403.398 259.248L401.61 276.327C401.341 274.66 401.185 273.323 401.139 272.316C401.079 271.182 401.109 270.031 401.23 268.863C401.468 266.565 402.19 263.362 403.396 259.254L403.398 259.248ZM347.422 265.151L348.376 280.613C347.679 279.01 347.199 277.735 346.936 276.786C346.626 275.7 346.44 274.64 346.379 273.607C346.249 271.53 346.596 268.714 347.419 265.162L347.422 265.151ZM367.75 296.953C371.639 296.935 376.448 297.251 382.178 297.9L351.791 298.632L351.765 298.633C355.379 298.032 358.214 297.621 360.27 297.401C362.589 297.144 364.809 296.998 366.931 296.961C367.199 296.957 367.473 296.954 367.75 296.953ZM290.261 331.911L300.467 345.031C297.493 342.872 295.403 340.988 294.199 339.38C292.824 337.618 291.513 335.134 290.268 331.93L290.261 331.911ZM340.282 340.32L344.069 346.642C343.091 346.345 342.391 346.066 341.968 345.804C341.477 345.516 341.102 345.157 340.843 344.728C340.33 343.876 340.142 342.408 340.282 340.324L340.282 340.32ZM330.11 321.774C327.495 322.865 325.557 323.906 324.297 324.899C322.753 326.06 321.458 327.52 320.413 329.278C318.502 332.243 316.503 338.742 314.415 348.772L315.765 327.672L330.108 321.774H330.11ZM337.56 345.057L341.848 350.856L338.458 349.26L337.562 345.066L337.56 345.057ZM297.859 379.451L291.324 407.619C291.132 403.858 291.088 401 291.195 399.045C291.295 396.801 291.568 394.716 292.014 392.79C292.895 388.993 294.841 384.55 297.853 379.46L297.859 379.451ZM288.611 407.384C281.928 411.041 277.001 413.87 273.83 415.871C270.996 417.649 269.007 419.183 267.863 420.473L272.247 414.577L272.264 414.554L288.609 407.384H288.611ZM267.856 420.481L266.468 422.346C266.949 421.591 267.406 420.976 267.84 420.499L267.856 420.481Z" fill="black" fill-opacity="0.117647"/>
<path d="M267.792 427.21C267.045 425.76 267.634 424.235 269.559 422.636C271.601 421.048 274.274 419.938 277.578 419.307C281.319 418.661 285.178 418.578 289.155 419.058C290.708 419.254 291.978 419.525 292.966 419.872C293.711 420.131 294.581 420.659 295.578 421.457C295.802 421.566 296.071 421.622 296.383 421.626C296.822 421.627 297.45 421.528 298.269 421.328L305.092 419.433C306.338 419.114 307.352 418.893 308.133 418.771C310.658 418.374 312.898 418.325 314.851 418.621L314.477 420.36C313.701 421.652 313.028 422.648 312.456 423.35C311.324 424.743 309.972 425.794 308.4 426.505C307.931 426.708 307.435 426.849 306.913 426.928C303.367 427.164 300.42 427.53 298.073 428.026C296.921 428.267 295.776 428.543 294.638 428.854L287.922 430.822C286.833 431.108 285.776 431.343 284.75 431.529C281.455 432.144 278.194 432.057 274.967 431.269C271.262 430.308 268.879 428.97 267.817 427.253" fill="white" fill-opacity="0.384314"/>
</svg>
