<svg width="537" height="478" viewBox="0 0 537 478" fill="none" xmlns="http://www.w3.org/2000/svg">
<g clip-path="url(#clip0_93_10237)">
<mask id="mask0_93_10237" style="mask-type:luminance" maskUnits="userSpaceOnUse" x="0" y="0" width="537" height="478">
<path d="M537 0H0V478H537V0Z" fill="white"/>
</mask>
<g mask="url(#mask0_93_10237)">
<path d="M493.018 271.687C487.533 391.249 382.01 425.287 250.573 427.838C50.1497 431.742 26.8186 367.556 26.8186 247.869C26.8186 128.182 70.5147 4.60347 186.363 13.7102C241.402 18.0384 303.876 109.993 350.65 140.503C415.269 182.659 497.151 181.871 493.018 271.687Z" fill="#FFDDF2"/>
<path opacity="0.42" d="M23.7415 321.761C23.7415 321.761 65.4892 303.397 84.6753 243.541C103.874 183.672 138.66 133.261 204.594 129.883C270.518 126.493 341.826 130.658 365.393 94.9819C388.947 59.3062 338.6 58.4931 337.892 121.089C337.184 183.684 445.686 298.481 451.358 387.622C457.03 476.762 383.772 459.074 292.757 423.235C201.741 387.409 106.728 458.31 47.5069 431.791C-11.7144 405.259 -9.1455 348.543 23.7415 321.761Z" stroke="#FE66C4" stroke-miterlimit="10"/>
<path opacity="0.42" d="M32.6015 252.385C45.8228 252.385 56.5407 241.581 56.5407 228.255C56.5407 214.928 45.8228 204.125 32.6015 204.125C19.3803 204.125 8.66235 214.928 8.66235 228.255C8.66235 241.581 19.3803 252.385 32.6015 252.385Z" fill="#FE66C4"/>
<path opacity="0.42" d="M54.206 250.032C66.1379 238.004 66.1379 218.505 54.206 206.478C42.2741 194.451 22.9287 194.451 10.9968 206.478C-0.935125 218.505 -0.935135 238.004 10.9968 250.032C22.9287 262.059 42.2741 262.059 54.206 250.032Z" stroke="#FE66C4" stroke-miterlimit="10"/>
<path opacity="0.42" d="M487.285 271.687C502.707 271.687 515.209 259.086 515.209 243.541C515.209 227.996 502.707 215.396 487.285 215.396C471.865 215.396 459.362 227.996 459.362 243.541C459.362 259.086 471.865 271.687 487.285 271.687Z" fill="#FE66C4"/>
<path opacity="0.42" d="M292.272 167.623L284.74 179.695H300.787L292.272 167.623Z" stroke="#FE66C4" stroke-miterlimit="10"/>
<path opacity="0.42" d="M185.98 55.303L175.903 71.4148H197.348L185.98 55.303Z" fill="#FE66C4"/>
<path opacity="0.42" d="M261.445 87.8519C277.524 87.8519 290.559 74.713 290.559 58.5054C290.559 42.2978 277.524 29.1589 261.445 29.1589C245.365 29.1589 232.331 42.2978 232.331 58.5054C232.331 74.713 245.365 87.8519 261.445 87.8519Z" fill="#FE66C4"/>
<path d="M260.861 54.8778L259.223 51.7254C258.168 49.699 258.95 47.1971 260.961 46.1339C262.325 45.4083 262.86 43.7071 262.14 42.3185L259.695 37.5901C258.975 36.2141 257.288 35.6762 255.909 36.4017L253.775 37.5276C251.765 38.5908 250.126 40.2421 249.084 42.2685L248.464 43.4819C247.384 45.571 247.396 48.0603 248.476 50.1493L253.056 58.9808L256.108 64.8726L260.687 73.7041C261.767 75.7931 263.79 77.2192 266.111 77.5194L267.451 77.6945C269.697 77.9947 271.981 77.5819 273.992 76.5186L276.126 75.3928C277.491 74.6672 278.024 72.966 277.318 71.5775L274.872 66.849C274.152 65.4731 272.464 64.9352 271.087 65.6481C269.077 66.7114 266.595 65.9234 265.54 63.8969L263.902 60.7446L260.861 54.8778Z" fill="white"/>
<path opacity="0.42" d="M474.403 389.536C474.403 392.888 471.71 395.615 468.372 395.615C465.045 395.615 462.34 392.9 462.34 389.536C462.34 386.17 465.033 383.456 468.372 383.456C471.71 383.468 474.403 386.183 474.403 389.536Z" stroke="#FE66C4" stroke-miterlimit="10"/>
<path opacity="0.42" d="M114.05 68.1752C120.206 68.1752 125.195 63.146 125.195 56.942C125.195 50.7381 120.206 45.7087 114.05 45.7087C107.896 45.7087 102.906 50.7381 102.906 56.942C102.906 63.146 107.896 68.1752 114.05 68.1752Z" fill="white"/>
<path opacity="0.42" d="M418.26 224.252C424.415 224.252 429.405 219.222 429.405 213.019C429.405 206.814 424.415 201.785 418.26 201.785C412.106 201.785 407.116 206.814 407.116 213.019C407.116 219.222 412.106 224.252 418.26 224.252Z" stroke="#FE66C4" stroke-miterlimit="10"/>
<path opacity="0.42" d="M67.4118 288.236C73.4091 288.236 78.2708 283.336 78.2708 277.29C78.2708 271.246 73.4091 266.345 67.4118 266.345C61.4147 266.345 56.553 271.246 56.553 277.29C56.553 283.336 61.4147 288.236 67.4118 288.236Z" fill="#FE66C4"/>
<path opacity="0.42" d="M487.286 262.955C497.923 262.955 506.546 254.263 506.546 243.541C506.546 232.819 497.923 224.126 487.286 224.126C476.648 224.126 468.025 232.819 468.025 243.541C468.025 254.263 476.648 262.955 487.286 262.955Z" stroke="white" stroke-miterlimit="10"/>
<path opacity="0.42" d="M470.915 59.6312H337.432C331.723 59.6312 327.106 64.2972 327.106 70.0388V151.311C327.106 157.065 331.736 161.718 337.432 161.718H422.565V182.209C422.565 185.636 426.536 187.5 429.143 185.298L456.929 161.718H470.915C476.624 161.718 481.24 157.052 481.24 151.311V70.0514C481.24 64.2972 476.624 59.6312 470.915 59.6312Z" fill="#FE66C4"/>
<path d="M504.721 69.776C504.721 81.9224 501.258 93.2436 495.289 102.751C494.345 104.276 493.328 105.765 492.248 107.191C481.34 121.626 464.276 130.921 445.102 130.921C435.26 130.921 425.978 128.481 417.8 124.141C398.601 113.984 385.484 93.4437 385.484 69.776C385.484 67.0115 385.657 64.2845 386.017 61.6075C389.901 31.6981 414.883 8.61877 445.102 8.61877C478.026 8.61877 504.721 36.0013 504.721 69.776Z" fill="#D60084"/>
<path d="M492.248 107.179C481.339 121.614 464.275 130.909 445.101 130.909C435.26 130.909 425.977 128.469 417.799 124.128C418.916 121.314 422.341 113.846 428.41 109.668C435.98 104.439 458.988 101.299 474.948 102.675C484.367 103.476 489.567 105.59 492.248 107.179Z" fill="#C6606C"/>
<path d="M418.258 38.7533L418.879 68.6127C418.879 68.6127 419.822 99.1224 444.444 98.5844C469.078 98.0465 474.278 60.3567 474.278 60.3567L470.406 37.4899C470.406 37.4899 441.614 18.1257 418.258 38.7533Z" fill="white"/>
<path d="M444.618 91.4039C444.618 91.4039 446.442 102.95 443.687 106.728C440.931 110.505 449.172 123.615 449.172 123.615L468.246 105.978C468.246 105.978 466.981 93.0434 467.328 81.7223L444.618 91.4039Z" fill="white"/>
<path d="M418.396 45.6084C418.396 45.6084 425.482 47.8851 433.065 47.2095C440.648 46.5341 443.303 43.4568 443.303 43.4568C443.303 43.4568 445.835 44.5325 449.955 44.5325C454.075 44.5325 457.141 42.5186 457.141 42.5186C457.141 42.5186 454.348 47.3472 455.539 53.5142C456.732 59.6812 460.728 61.2824 460.728 61.2824C460.728 61.2824 463.259 55.1153 467.639 55.1153C472.02 55.1153 473.622 59.8063 472.492 65.9733C471.363 72.1403 464.313 73.6164 464.313 73.6164L467.317 81.7348C467.317 81.7348 478.672 69.4633 480 55.9284C481.328 42.3935 474.552 38.3656 474.552 38.3656C474.552 38.3656 475.123 28.3082 461.807 24.8307C448.491 21.3406 439.717 21.6158 429.739 27.3826C429.739 27.3826 421.362 20.9529 414.313 24.8307C407.265 28.721 409.262 37.0271 412.712 39.1662C412.712 39.1662 405.936 40.905 407.389 49.3486C408.853 57.7923 418.619 57.1293 418.619 57.1293L418.396 45.6084Z" fill="#FF1EA9"/>
<path d="M444.444 98.5845C444.444 98.5845 462.352 93.8063 464.113 81.7347C464.113 81.7347 468.556 99.2354 444.444 105.177C444.444 105.177 445.163 99.9735 444.444 98.5845Z" fill="#D9D9D9"/>
<path opacity="0.42" d="M536.621 32.6289C539.104 17.3155 528.802 2.87247 513.609 0.369617C498.416 -2.13324 484.088 8.25182 481.605 23.5653C479.122 38.8788 489.425 53.3218 504.617 55.8246C519.81 58.3274 534.138 47.9424 536.621 32.6289Z" fill="#FE66C4"/>
<path d="M505.976 35.6636L505.877 34.3627C505.578 31.6481 506.472 28.6835 508.967 25.6688C511.213 23.0043 512.454 21.0404 512.454 18.7762C512.454 16.2118 510.853 14.4981 507.713 14.448C505.913 14.448 503.928 15.0485 502.675 16.0117L501.484 12.8468C503.134 11.646 505.976 10.8329 508.619 10.8329C514.352 10.8329 516.946 14.398 516.946 18.2258C516.946 21.6408 515.048 24.1051 512.652 26.9697C510.456 29.5842 509.662 31.7982 509.811 34.3627L509.86 35.6636H505.976ZM504.884 42.7062C504.884 40.8424 506.125 39.5414 507.874 39.5414C509.624 39.5414 510.816 40.8424 510.816 42.7062C510.816 44.47 509.674 45.821 507.825 45.821C506.075 45.821 504.884 44.47 504.884 42.7062Z" fill="white"/>
<path d="M461.718 358.462C461.631 358.75 461.519 358.988 461.383 359.176C459.025 362.615 456.543 365.955 453.924 369.183H453.912C368.728 474.697 149.677 474.697 149.677 474.697V348.768H461.383C461.383 348.768 462.586 355.622 461.718 358.462Z" fill="#FF1EA9"/>
<path d="M461.718 358.462C461.631 358.751 461.519 358.988 461.383 359.176C459.025 362.615 456.543 365.956 453.924 369.183H453.912L149.677 404.083V358.462H461.718Z" fill="#EA0091"/>
<path d="M292.754 259.69L277.676 275.802C277.676 275.802 274.586 272.599 270.888 267.696C269.125 265.344 267.227 262.605 265.477 259.641C263.181 255.762 261.121 251.509 259.942 247.243C255.971 232.92 257.597 202.711 257.597 202.711C257.597 202.711 264.025 203.411 266.222 205.876C278.595 219.761 292.754 259.69 292.754 259.69Z" fill="#FF6A76"/>
<path d="M236.076 312.317H128.108L118.242 228.63C117.112 219.048 123.739 210.329 133.059 209.103L139.55 208.253L222.052 197.445L236.076 312.317Z" fill="#FE66C4"/>
<path d="M209.717 200.221C209.717 200.221 174.584 211.605 172.673 214.544C170.774 217.472 187.267 269.372 187.267 269.372L184.09 312.329H255.635L259.246 271.336C259.246 271.336 266.903 262.867 267.375 248.87C267.846 234.872 257.596 202.711 257.596 202.711L232.638 199.408L209.717 200.221Z" fill="#FF6A76"/>
<path d="M219.769 119.6C219.769 119.6 195.284 108.98 177.897 133.748C160.51 158.516 178.518 197.445 178.518 197.445C178.518 197.445 222.884 191.603 235.157 190.414C247.431 189.226 249.925 189.226 249.925 189.226C249.925 189.226 256.255 150.11 242.752 135.725C229.238 121.351 219.769 119.6 219.769 119.6Z" fill="#FF1EA9"/>
<path d="M228.878 216.195L208.203 201.91C208.203 201.91 209.903 196.444 209.481 190.977C209.382 189.764 209.183 188.551 208.835 187.4C208.662 186.824 208.45 186.261 208.203 185.711L228.878 184.673C228.878 184.673 229.015 186.362 229.4 188.538C229.709 190.24 230.168 192.241 230.864 193.98C231.359 195.268 231.98 196.406 232.75 197.194C235.914 200.435 228.878 216.195 228.878 216.195Z" fill="white"/>
<path d="M230.865 193.98C228.208 194.067 216.804 194.242 209.482 190.977C209.383 189.764 209.184 188.551 208.836 187.4C208.836 187.4 222.773 189.113 229.4 188.538C229.71 190.239 230.169 192.241 230.865 193.98Z" fill="#D9D9D9"/>
<path d="M240.52 128.995L243.97 157.715C243.97 157.715 248.488 187.312 224.797 190.177C201.106 193.054 193.138 165.446 193.138 165.446L190.333 134.961C190.321 134.961 215.315 112.432 240.52 128.995Z" fill="white"/>
<path d="M229.711 131.221C229.711 131.221 226.609 138.901 216.42 144.355C207.385 149.184 198.909 150.522 198.909 150.522C198.909 150.522 197.543 158.616 192.977 163.682C192.977 163.682 185.06 148.546 188.298 135.511C191.525 122.477 208.217 116.185 222.873 117.511C237.517 118.837 242.791 124.254 244.74 132.859C246.688 141.466 243.437 153.099 243.437 153.099C243.437 153.099 240.297 133.911 229.711 131.221Z" fill="#FF1EA9"/>
<path d="M190.32 157.353C190.32 157.353 187.503 135.511 204.207 123.916C215.09 116.36 228.792 118.374 228.792 118.374C228.792 118.374 220.154 111.819 203.14 119.387C186.126 126.956 185.257 144.068 186.982 157.353H190.32Z" fill="#D60084"/>
<path d="M152.73 312.316H128.096L118.229 228.63C117.1 219.048 123.727 210.329 133.048 209.103L139.538 208.252L152.73 312.316Z" fill="#99005F"/>
<path d="M213.441 184.923C202.135 184.923 193.746 176.992 193.374 176.629L194.888 174.966C194.975 175.053 204.146 183.684 215.613 182.533L215.824 184.797C215.017 184.886 214.223 184.923 213.441 184.923Z" fill="#99005F"/>
<path d="M493.525 359.176H154.765C145.705 359.176 137.068 355.41 131.049 348.818L112.446 328.478C105.224 320.585 110.97 308.088 121.816 308.088H452.522C463.952 308.088 474.934 312.416 483.15 320.16L502.25 338.135C510.378 345.778 504.818 359.176 493.525 359.176Z" fill="#D60084"/>
<path d="M339.045 207.515C338.436 207.852 337.481 208.415 336.438 209.04L336.24 208.715C339.342 206.726 343.921 203.611 343.612 202.861C343.14 201.723 340.819 202.323 339.094 203.261C338.101 203.811 336.29 204.9 334.54 205.963L334.416 205.763C337.493 203.799 342.618 200.384 342.283 199.584C341.812 198.445 339.492 199.046 337.766 199.984C336.675 200.584 334.602 201.835 332.703 202.986L332.554 202.749C335.607 200.759 339.578 198.008 339.293 197.307C338.821 196.169 336.501 196.769 334.776 197.707C332.442 198.983 325.678 203.198 325.678 203.198L320.752 205.013C321.82 203.273 324.81 196.832 323.408 196.832C322.005 196.832 318.159 201.323 316.557 205.951C315.366 209.416 315.217 212.505 315.217 213.832L272.017 269.16C272.017 269.16 273.035 270.773 274.586 272.937C279.066 279.179 289.503 280.555 295.535 275.815C300.3 272.061 304.048 267.108 307.733 262.042C314.671 252.51 325.008 227.203 327.428 221.149L337.208 211.918C339.889 210.167 343.301 207.802 343.053 207.177C342.631 206.164 340.571 206.689 339.045 207.515Z" fill="white"/>
<path d="M225.404 321.548C225.404 321.548 230.454 325.301 232.453 330.392C234.45 335.483 221.681 338.761 200.372 331.468C184.872 326.164 211.045 309.877 225.404 321.548Z" fill="#FF1EA9"/>
<path d="M217.387 186.299H214.532C213.514 186.299 212.684 185.448 212.684 184.41V182.634C212.684 181.595 213.514 180.745 214.532 180.745H217.387C218.404 180.745 219.236 181.595 219.236 182.634V183.522V184.41C219.224 185.448 218.404 186.299 217.387 186.299Z" fill="#FF1EA9"/>
<path d="M202.533 163.832C204.109 171.788 200.001 179.369 193.349 180.757C186.698 182.145 180.033 176.817 178.444 168.861C176.868 160.905 180.976 153.324 187.628 151.936C194.279 150.548 200.956 155.877 202.533 163.832Z" fill="#FE66C4"/>
<path d="M195.83 165.234C196.761 169.925 194.341 174.403 190.419 175.216C186.497 176.028 182.564 172.889 181.633 168.198C180.702 163.507 183.122 159.029 187.044 158.215C190.966 157.39 194.9 160.543 195.83 165.234Z" fill="#D60084"/>
<path d="M178.456 211.405C178.456 211.405 172.425 212.318 169.968 216.246C159.469 233.083 139.042 284.584 139.042 284.584L158.749 293.365C158.749 293.365 184.662 263.105 187.044 248.707C189.426 234.309 178.456 211.405 178.456 211.405Z" fill="#FF6A76"/>
<path d="M156.886 288.974L197.332 315.493L191.623 328.265C191.623 328.265 155.224 315.08 144.03 306.55C132.848 298.006 139.029 284.584 139.029 284.584C139.029 284.584 145.233 283.846 156.886 288.974Z" fill="white"/>
<path d="M196.154 315.081C196.154 315.081 209.793 314.431 214.707 314.431C219.622 314.431 228.185 322.561 227.241 325.163C226.286 327.765 216.456 319.796 216.456 319.796L215.898 320.86C215.898 320.86 224.623 326.226 225.094 328.265C225.566 330.304 223.593 329.979 220.738 328.753C217.884 327.527 213.603 324.763 213.603 324.763L213.131 325.338C213.131 325.338 221.384 330.467 221.384 332.331C221.384 334.208 215.439 332.081 211.071 329.153L210.513 330.054C210.513 330.054 215.911 332.819 216.308 334.607C216.705 336.397 213.764 335.671 210.513 334.12C207.261 332.568 204.245 332.406 200.039 331.755C195.831 331.105 190.842 327.965 190.842 327.965L196.154 315.081Z" fill="white"/>
<path d="M446.926 240.701L427.529 338.76H283.819L303.104 241.264C303.514 239.2 305.277 237.724 307.324 237.724H444.555C446.082 237.724 447.236 239.162 446.926 240.701Z" fill="#FE66C4"/>
<path d="M283.818 338.76L244.341 325.814C242.951 325.351 242.008 324.05 242.008 322.561C242.008 320.672 243.522 319.146 245.396 319.146H287.714L283.818 338.76Z" fill="#FF1EA9"/>
<path d="M180.206 215.382C180.206 215.382 189.042 240.576 183.693 257.877C183.693 257.877 201.762 237.637 180.206 215.382Z" fill="#C6606C"/>
<path d="M270.886 267.696C269.125 265.344 267.225 262.605 265.476 259.64C269.125 245.192 260.636 213.019 260.636 213.019C279.238 236.923 274.051 259.127 270.886 267.696Z" fill="#C6606C"/>
<path d="M311.755 243.541L427.529 338.76H295.521L311.755 243.541Z" fill="#99005F"/>
<path d="M381.338 304.214C387.233 301.769 390.046 294.97 387.62 289.028C385.195 283.086 378.45 280.251 372.555 282.696C366.66 285.14 363.848 291.939 366.273 297.881C368.699 303.823 375.443 306.658 381.338 304.214Z" fill="#FF1EA9"/>
<path d="M209.346 196.156L228.879 216.183C228.879 216.183 225.492 221.012 219.857 220.887C214.223 220.749 211.046 213.531 209.458 209.766C207.857 206.001 204.605 201.898 204.605 201.898L209.346 196.156Z" fill="#FFA9B3"/>
<path d="M228.878 216.196C228.878 216.196 233.917 219.286 238.831 217.134C243.746 214.995 242.418 211.718 240.693 208.253C238.968 204.8 237.107 198.633 237.107 198.633L231.497 195.38C231.497 195.38 232.49 208.553 228.878 216.196Z" fill="#FFA9B3"/>
<path d="M258.998 254.887L209.779 259.69C209.779 259.69 220.812 267.671 237.802 265.257C254.791 262.843 258.998 254.887 258.998 254.887Z" fill="#C6606C"/>
<path opacity="0.42" d="M148.982 93.5681H59.9771C54.3056 93.5681 49.7014 98.2097 49.7014 103.926V127.706C49.7014 133.423 54.3056 138.064 59.9771 138.064H134.959L159.258 152.224V138.064V131.221V103.926C159.258 98.2097 154.654 93.5681 148.982 93.5681Z" fill="#FE66C4"/>
<path d="M56.5393 104.327H149.255" stroke="white" stroke-miterlimit="10" stroke-linecap="round" stroke-linejoin="round"/>
<path d="M56.5393 115.734H149.255" stroke="white" stroke-miterlimit="10" stroke-linecap="round" stroke-linejoin="round"/>
<path d="M56.5393 127.144H149.255" stroke="white" stroke-miterlimit="10" stroke-linecap="round" stroke-linejoin="round"/>
<path d="M154.083 370.083C156.417 350.67 141.214 353.584 130.814 363.829C120.415 374.074 110.226 368.357 121.755 349.218C133.284 330.079 141.723 324.2 140.134 314.568C138.533 304.936 130.206 309.151 115.786 317.158C101.365 325.164 114.992 304.248 113.899 284.408C112.807 264.569 93.2614 274.476 91.6233 291.189C89.9852 307.888 97.3816 326.59 87.8879 322.886C78.4061 319.171 72.6602 296.992 64.0351 307.463C55.4101 317.933 88.3838 353.447 87.2794 364.166C86.1748 374.887 62.4466 342.213 55.6334 352.971C48.8203 363.729 78.3068 435.557 103.834 433.543C136.263 430.99 151.75 389.498 154.083 370.083Z" fill="#C6606C"/>
<path d="M101.525 293.527C101.525 293.527 97.4551 315.994 99.081 344.478C100.707 372.973 104.405 444.65 104.405 444.65" stroke="#AA4451" stroke-miterlimit="10"/>
<path d="M73.8142 321.76C73.8142 321.76 92.5538 344.177 99.3546 349.118C99.3546 349.118 123.555 325.613 128.171 321.76" stroke="#AA4451" stroke-miterlimit="10"/>
<path d="M62.7454 366.631C62.7454 366.631 90.9167 395.202 101.937 397.091L143.386 369.083" stroke="#AA4451" stroke-miterlimit="10"/>
<path d="M92.7647 422.522C92.7647 422.522 104.977 395.302 98.3997 380.679C91.8219 366.056 82.3902 374.637 79.4242 386.296C76.4582 397.954 66.8899 398.317 66.8899 379.94C66.8899 361.565 70.3275 353.797 65.1276 347.729C59.9278 341.663 55.8697 348.192 49.131 360.013C42.3923 371.835 43.112 351.295 33.9534 337.835C24.7947 324.375 15.2761 339.736 21.1833 352.171C27.103 364.592 40.208 374.537 31.9801 376.013C23.7522 377.489 10.3368 364.379 8.7111 375.437C7.08537 386.496 45.259 397.241 49.0069 405.234C52.7672 413.228 22.3002 400.506 22.0644 410.988C21.8286 421.471 57.2845 439.86 73.3432 437.12C89.4019 434.38 92.7647 422.522 92.7647 422.522Z" fill="#FF6A76"/>
<path d="M28.4312 346.003C28.4312 346.003 74.9072 421.271 84.6865 444.65" stroke="#AA4451" stroke-miterlimit="10"/>
<path d="M20.8108 381.73L53.4991 387.609L60.2255 359.275" stroke="#AA4451" stroke-miterlimit="10"/>
<path d="M38.0859 415.542L73.0081 421.634L87.4039 389.673" stroke="#AA4451" stroke-miterlimit="10"/>
<path d="M72.002 444.65H131.062L125.986 474.697H78.1573L72.002 444.65Z" fill="#99005F"/>
<path d="M131.782 452.957H71.816C69.6069 452.957 67.8323 451.155 67.8323 448.941V445.752C67.8323 443.525 69.6193 441.736 71.816 441.736H131.782C133.991 441.736 135.766 443.537 135.766 445.752V448.941C135.778 451.155 133.991 452.957 131.782 452.957Z" fill="#FE66C4"/>
<path opacity="0.42" d="M345.287 477.988C367.932 477.988 386.289 459.483 386.289 436.658C386.289 413.831 367.932 395.327 345.287 395.327C322.641 395.327 304.283 413.831 304.283 436.658C304.283 459.483 322.641 477.988 345.287 477.988Z" fill="#FE66C4"/>
<path d="M371.05 421.396H319.511C318.096 421.396 316.954 422.547 316.954 423.973V452.594C316.954 454.02 318.096 455.171 319.511 455.171H371.05C372.465 455.171 373.607 454.02 373.607 452.594V423.973C373.607 422.547 372.465 421.396 371.05 421.396ZM371.82 425.524L347.62 441.474C347.409 441.611 347.173 441.673 346.938 441.673C346.726 441.673 346.515 441.624 346.329 441.511L318.146 425.561C317.55 425.223 317.339 424.461 317.674 423.86C318.009 423.26 318.766 423.047 319.362 423.385L346.9 438.959L370.467 423.423C371.038 423.047 371.808 423.21 372.179 423.785C372.552 424.373 372.39 425.148 371.82 425.524Z" fill="white"/>
<path d="M376.946 432.204C385.342 432.204 392.148 425.343 392.148 416.88C392.148 408.418 385.342 401.556 376.946 401.556C368.55 401.556 361.743 408.418 361.743 416.88C361.743 425.343 368.55 432.204 376.946 432.204Z" fill="#FFA9B3"/>
</g>
</g>
<defs>
<clipPath id="clip0_93_10237">
<rect width="537" height="478" fill="white"/>
</clipPath>
</defs>
</svg>
