<svg width="173" height="48" viewBox="0 0 173 48" fill="none" xmlns="http://www.w3.org/2000/svg">
<rect width="173" height="48" rx="24" fill="#D9D9D9"/>
<path d="M30.78 18.515H35.325C36.515 18.515 37.44 18.815 38.1 19.415C38.77 20.005 39.105 20.86 39.105 21.98C39.105 22.76 38.925 23.425 38.565 23.975C38.205 24.515 37.695 24.91 37.035 25.16L39.03 29H36.69L34.845 25.445H33.06V29H30.78V18.515ZM34.92 23.54C35.5 23.54 35.955 23.415 36.285 23.165C36.625 22.915 36.795 22.52 36.795 21.98C36.795 21.41 36.63 21.01 36.3 20.78C35.97 20.54 35.51 20.42 34.92 20.42H33.06V23.54H34.92ZM44.5147 29.225C43.1347 29.225 42.0497 28.895 41.2597 28.235C40.4697 27.565 40.0747 26.63 40.0747 25.43C40.0747 24.24 40.4247 23.3 41.1247 22.61C41.8347 21.92 42.8447 21.575 44.1547 21.575C45.0147 21.575 45.7447 21.735 46.3447 22.055C46.9447 22.375 47.3997 22.82 47.7097 23.39C48.0197 23.95 48.1747 24.585 48.1747 25.295V26.21H42.2347C42.3947 27.13 43.2547 27.59 44.8147 27.59C45.2747 27.59 45.7497 27.55 46.2397 27.47C46.7297 27.39 47.1547 27.28 47.5147 27.14V28.73C47.1647 28.88 46.7147 29 46.1647 29.09C45.6147 29.18 45.0647 29.225 44.5147 29.225ZM46.0297 24.74C45.9997 24.26 45.8197 23.89 45.4897 23.63C45.1597 23.36 44.7047 23.225 44.1247 23.225C43.5547 23.225 43.1047 23.36 42.7747 23.63C42.4447 23.9 42.2647 24.27 42.2347 24.74H46.0297ZM52.4425 29.225C51.6025 29.225 50.9625 28.995 50.5225 28.535C50.0925 28.065 49.8775 27.415 49.8775 26.585V23.435H48.8275V21.8H49.8775V19.64H52.1425V21.8H53.8375V23.435H52.1425V26.285C52.1425 26.705 52.2225 27.01 52.3825 27.2C52.5425 27.38 52.8275 27.47 53.2375 27.47C53.5675 27.47 53.8825 27.39 54.1825 27.23V28.925C53.7225 29.125 53.1425 29.225 52.4425 29.225ZM59.19 29.225C58.32 29.225 57.555 29.07 56.895 28.76C56.245 28.44 55.74 27.995 55.38 27.425C55.03 26.845 54.855 26.17 54.855 25.4C54.855 24.65 55.03 23.985 55.38 23.405C55.74 22.825 56.245 22.375 56.895 22.055C57.555 21.735 58.32 21.575 59.19 21.575C60.05 21.575 60.805 21.735 61.455 22.055C62.115 22.375 62.62 22.825 62.97 23.405C63.33 23.985 63.51 24.65 63.51 25.4C63.51 26.17 63.33 26.845 62.97 27.425C62.62 27.995 62.12 28.44 61.47 28.76C60.82 29.07 60.06 29.225 59.19 29.225ZM59.19 27.455C59.8 27.455 60.285 27.27 60.645 26.9C61.005 26.52 61.185 26.02 61.185 25.4C61.185 24.76 61.005 24.26 60.645 23.9C60.295 23.53 59.81 23.345 59.19 23.345C58.57 23.345 58.08 23.53 57.72 23.9C57.36 24.26 57.18 24.76 57.18 25.4C57.18 26.02 57.36 26.52 57.72 26.9C58.09 27.27 58.58 27.455 59.19 27.455ZM67.644 29.225C66.664 29.225 65.929 28.96 65.439 28.43C64.949 27.89 64.704 27.175 64.704 26.285V21.8H66.969V26.045C66.969 26.985 67.404 27.455 68.274 27.455C68.654 27.455 69.009 27.365 69.339 27.185C69.669 27.005 69.944 26.735 70.164 26.375V21.8H72.429V29H70.239V28.13C69.919 28.5 69.529 28.775 69.069 28.955C68.619 29.135 68.144 29.225 67.644 29.225ZM74.0075 21.8H76.1975V22.835C76.4875 22.485 76.8925 22.22 77.4125 22.04C77.9325 21.85 78.5225 21.755 79.1825 21.755V23.48C78.4925 23.48 77.8825 23.585 77.3525 23.795C76.8325 24.005 76.4725 24.325 76.2725 24.755V29H74.0075V21.8ZM87.2044 18.335H89.5894L90.6244 20.975H88.5244L87.2044 18.335ZM88.0744 29.225C87.1944 29.225 86.4744 29.005 85.9144 28.565C85.3644 28.115 85.0894 27.505 85.0894 26.735C85.0894 25.935 85.3544 25.315 85.8844 24.875C86.4144 24.425 87.1644 24.2 88.1344 24.2C88.5644 24.2 88.9744 24.245 89.3644 24.335C89.7544 24.425 90.0994 24.55 90.3994 24.71V24.53C90.3994 24.08 90.2394 23.75 89.9194 23.54C89.5994 23.33 89.1094 23.225 88.4494 23.225C87.5694 23.225 86.7594 23.39 86.0194 23.72V22.07C86.3394 21.93 86.7544 21.815 87.2644 21.725C87.7744 21.625 88.2844 21.575 88.7944 21.575C90.0944 21.575 91.0644 21.845 91.7044 22.385C92.3444 22.915 92.6644 23.66 92.6644 24.62V29H90.5344V28.34C89.9244 28.93 89.1044 29.225 88.0744 29.225ZM88.6894 27.725C89.0594 27.725 89.3944 27.655 89.6944 27.515C89.9944 27.375 90.2294 27.18 90.3994 26.93V26.21C89.8894 25.87 89.3294 25.7 88.7194 25.7C88.2994 25.7 87.9744 25.79 87.7444 25.97C87.5244 26.14 87.4144 26.395 87.4144 26.735C87.4144 27.055 87.5244 27.3 87.7444 27.47C87.9644 27.64 88.2794 27.725 88.6894 27.725ZM99.4079 17.915H101.673V29H99.4079V17.915ZM103.921 18.29H106.096L104.881 21.26H102.946L103.921 18.29ZM111.277 18.515H113.512L117.697 29H115.372L114.472 26.72H110.317L109.417 29H107.077L111.277 18.515ZM113.872 24.905L112.387 20.915L110.902 24.905H113.872ZM122.25 29.225C120.95 29.225 119.915 28.895 119.145 28.235C118.375 27.565 117.99 26.625 117.99 25.415C117.99 24.205 118.375 23.265 119.145 22.595C119.925 21.915 120.965 21.575 122.265 21.575C123.445 21.575 124.385 21.795 125.085 22.235V24.02C124.765 23.79 124.39 23.62 123.96 23.51C123.54 23.4 123.095 23.345 122.625 23.345C121.925 23.345 121.365 23.515 120.945 23.855C120.525 24.195 120.315 24.715 120.315 25.415C120.315 26.115 120.52 26.635 120.93 26.975C121.35 27.305 121.91 27.47 122.61 27.47C123.58 27.47 124.435 27.235 125.175 26.765V28.535C124.435 28.995 123.46 29.225 122.25 29.225ZM130.175 29.225C128.875 29.225 127.84 28.895 127.07 28.235C126.3 27.565 125.915 26.625 125.915 25.415C125.915 24.205 126.3 23.265 127.07 22.595C127.85 21.915 128.89 21.575 130.19 21.575C131.37 21.575 132.31 21.795 133.01 22.235V24.02C132.69 23.79 132.315 23.62 131.885 23.51C131.465 23.4 131.02 23.345 130.55 23.345C129.85 23.345 129.29 23.515 128.87 23.855C128.45 24.195 128.24 24.715 128.24 25.415C128.24 26.115 128.445 26.635 128.855 26.975C129.275 27.305 129.835 27.47 130.535 27.47C131.505 27.47 132.36 27.235 133.1 26.765V28.535C132.36 28.995 131.385 29.225 130.175 29.225ZM137.224 29.225C136.244 29.225 135.509 28.96 135.019 28.43C134.529 27.89 134.284 27.175 134.284 26.285V21.8H136.549V26.045C136.549 26.985 136.984 27.455 137.854 27.455C138.234 27.455 138.589 27.365 138.919 27.185C139.249 27.005 139.524 26.735 139.744 26.375V21.8H142.009V29H139.819V28.13C139.499 28.5 139.109 28.775 138.649 28.955C138.199 29.135 137.724 29.225 137.224 29.225ZM147.728 29.225C146.348 29.225 145.263 28.895 144.473 28.235C143.683 27.565 143.288 26.63 143.288 25.43C143.288 24.24 143.638 23.3 144.338 22.61C145.048 21.92 146.058 21.575 147.368 21.575C148.228 21.575 148.958 21.735 149.558 22.055C150.158 22.375 150.613 22.82 150.923 23.39C151.233 23.95 151.388 24.585 151.388 25.295V26.21H145.448C145.608 27.13 146.468 27.59 148.028 27.59C148.488 27.59 148.963 27.55 149.453 27.47C149.943 27.39 150.368 27.28 150.728 27.14V28.73C150.378 28.88 149.928 29 149.378 29.09C148.828 29.18 148.278 29.225 147.728 29.225ZM149.243 24.74C149.213 24.26 149.033 23.89 148.703 23.63C148.373 23.36 147.918 23.225 147.338 23.225C146.768 23.225 146.318 23.36 145.988 23.63C145.658 23.9 145.478 24.27 145.448 24.74H149.243ZM153.885 20.69C153.535 20.69 153.24 20.575 153 20.345C152.76 20.115 152.64 19.825 152.64 19.475C152.64 19.135 152.76 18.85 153 18.62C153.24 18.38 153.535 18.26 153.885 18.26C154.235 18.26 154.53 18.38 154.77 18.62C155.01 18.85 155.13 19.135 155.13 19.475C155.13 19.825 155.01 20.115 154.77 20.345C154.53 20.575 154.235 20.69 153.885 20.69ZM152.745 21.8H155.025V29H152.745V21.8ZM156.683 17.915H158.948V29H156.683V17.915Z" fill="#484848"/>
<path d="M12 24.4302L22 30.5134" stroke="black" stroke-width="2" stroke-linecap="round"/>
<path d="M12 24.0833L22 18.0001" stroke="black" stroke-width="2" stroke-linecap="round"/>
</svg>
