<svg width="445" height="467" viewBox="0 0 445 467" fill="none" xmlns="http://www.w3.org/2000/svg">
<path d="M329.24 1.82178C325.33 5.37622 324.086 6.48716 321.243 8.8866C317.421 12.0857 310.49 18.2171 309.912 18.8392C309.69 19.1058 307.691 20.8388 305.469 22.6603C303.292 24.4821 301.159 26.2593 300.759 26.6592C300.404 27.0146 298.804 28.4366 297.205 29.814C295.65 31.1912 291.073 35.1904 287.075 38.7004C283.075 42.2105 278.855 45.8538 277.744 46.8314C275.078 49.053 270.768 52.8295 269.257 54.207C266.858 56.4731 264.548 58.4726 261.926 60.6055C260.46 61.8495 257.438 64.4266 255.217 66.3816C253.04 68.3811 249.263 71.6689 246.819 73.7572C242.331 77.6228 238.999 80.5999 237.711 81.7549C237.355 82.1105 235.711 83.5323 234.156 84.8654C222.915 94.4181 219.404 97.9727 220.293 98.8168C220.426 98.9503 233.801 99.0836 250.018 99.0836L279.477 99.0833L279.965 100.15C280.365 100.949 280.232 101.971 279.565 104.682C279.077 106.637 278.544 109.258 278.41 110.591C278.233 111.924 277.877 113.39 277.655 113.835C277.388 114.279 276.944 116.101 276.589 117.878C276.233 119.655 275.478 122.765 274.856 124.854C274.234 126.942 273.523 129.519 273.212 130.63C272.945 131.741 272.323 133.562 271.879 134.718C271.39 135.873 271.035 137.117 271.035 137.517C271.035 137.917 270.724 138.894 270.413 139.65C269.746 141.116 268.413 144.848 267.214 148.492C266.858 149.647 266.369 150.713 266.147 150.847C265.881 150.98 265.703 151.424 265.703 151.824C265.703 152.491 264.992 154.179 262.593 159.289C262.104 160.266 260.816 163.065 259.705 165.509C258.594 167.953 257.483 170.263 257.216 170.619C256.994 170.974 256.594 171.774 256.372 172.396C256.106 173.018 255.75 173.818 255.528 174.173C255.261 174.529 254.373 176.217 253.484 177.95C252.551 179.638 251.351 181.86 250.774 182.838C250.196 183.815 249.352 185.326 248.819 186.17C247.441 188.569 246.508 190.08 242.332 196.612C241.887 197.323 241.31 198.256 241.043 198.7C240.288 199.944 235.978 206.209 235 207.453C228.114 216.384 226.159 218.916 225.625 219.494C225.314 219.894 222.693 222.871 219.849 226.159C213.806 233.135 203.143 243.754 196.211 249.752C193.545 252.063 190.835 254.418 190.213 254.995C189.591 255.573 188.569 256.373 187.947 256.728C187.325 257.128 185.548 258.506 183.948 259.75C179.461 263.348 170.663 269.391 164.043 273.524C162.487 274.457 159.999 276.056 158.489 276.989C156.978 277.967 154.223 279.566 152.401 280.499C150.58 281.477 147.825 282.898 146.314 283.698C144.804 284.498 143.204 285.253 142.76 285.387C142.315 285.564 141.649 285.875 141.293 286.098C138.761 287.741 119.922 295.428 116.634 296.184C115.923 296.361 115.123 296.628 114.857 296.806C114.634 297.028 113.301 297.472 111.968 297.828C110.636 298.228 108.725 298.85 107.747 299.205C106.77 299.561 105.526 299.872 104.948 299.916C104.415 299.916 103.215 300.227 102.282 300.627C101.394 300.982 99.7495 301.471 98.6387 301.693C97.528 301.871 95.3508 302.36 93.7512 302.76C87.9306 304.182 82.8209 305.203 80.1995 305.47C78.7331 305.648 76.3338 306.047 74.8676 306.358C73.4014 306.669 70.2911 307.069 67.9806 307.247C65.6701 307.381 61.2715 307.825 58.2057 308.136C51.7629 308.891 33.5014 309.025 28.2139 308.358C26.2588 308.136 21.2825 307.603 17.106 307.247C12.9738 306.892 8.84154 306.403 7.99738 306.137C3.73198 304.892 0.532992 306.537 0.133122 310.269C-0.355678 314.356 0.932815 315.112 15.773 319.511C17.506 319.999 20.0831 320.799 21.5493 321.288C23.0155 321.732 24.5262 322.132 24.8817 322.132C25.2371 322.132 26.8367 322.532 28.4363 322.976C31.9907 324.043 36.5228 325.153 40.655 325.909C42.3878 326.22 45.4537 326.842 47.5419 327.242C49.6302 327.642 52.8294 328.219 54.6511 328.575C56.4728 328.93 60.0719 329.463 62.6489 329.686C65.2259 329.952 68.1585 330.352 69.1803 330.574C71.1799 331.063 78.6888 331.596 94.9066 332.44C103.793 332.885 107.17 332.84 120.233 332.174C128.497 331.729 137.917 331.018 141.071 330.574C144.27 330.085 148.269 329.596 149.958 329.463C151.69 329.286 154.179 328.93 155.512 328.575C156.845 328.263 159.111 327.864 160.577 327.686C161.999 327.508 163.909 327.108 164.798 326.797C165.687 326.486 167.731 326.086 169.286 325.909C170.885 325.731 172.796 325.331 173.596 325.02C174.395 324.665 175.995 324.265 177.15 324.132C178.305 323.954 180.438 323.465 181.86 322.976C183.237 322.532 184.748 322.132 185.192 322.132C185.592 322.132 187.236 321.732 188.836 321.199C194.257 319.466 197.056 318.622 198.611 318.355C199.455 318.178 200.388 317.867 200.61 317.689C200.877 317.467 201.943 317.111 203.054 316.8C204.165 316.533 206.12 315.912 207.364 315.423C208.653 314.934 210.874 314.134 212.252 313.601C217.05 311.868 226.603 308.047 231.046 306.048C234.379 304.537 244.109 299.916 245.042 299.383C245.531 299.072 247.442 298.094 249.263 297.161C251.085 296.228 252.907 295.251 253.262 295.028C253.618 294.806 255.973 293.473 258.505 292.051C261.038 290.63 263.659 289.119 264.281 288.719C264.948 288.275 266.059 287.608 266.77 287.208C267.48 286.809 269.08 285.787 270.28 284.943C271.435 284.098 272.768 283.298 273.168 283.121C273.612 282.943 274.856 282.143 275.922 281.343C278.055 279.788 280.899 277.789 284.809 275.167C286.142 274.279 287.564 273.257 287.919 272.946C288.275 272.635 289.874 271.346 291.474 270.147C293.073 268.947 294.584 267.747 294.895 267.481C295.162 267.259 297.694 265.215 300.449 262.904C307.292 257.261 309.558 255.217 318.799 245.931C328.708 236.023 330.441 234.157 336.794 226.292C344.481 216.872 346.169 214.517 353.723 203.232C358.033 196.745 358.433 196.078 361.898 189.947C363.276 187.503 364.564 185.193 364.786 184.837C365.408 183.815 373.228 167.953 374.073 165.953C374.517 164.976 375.272 163.288 375.805 162.177C376.294 161.066 376.872 159.688 377.005 159.066C377.183 158.444 377.538 157.689 377.805 157.378C378.249 156.845 378.827 155.379 380.56 150.402C380.915 149.425 381.804 146.936 382.559 144.848C383.314 142.76 384.203 140.049 384.514 138.85C384.869 137.606 385.358 136.006 385.625 135.295C386.647 132.407 388.913 123.921 389.757 119.966C389.979 118.856 390.468 116.945 390.779 115.745C391.134 114.501 391.623 112.102 391.845 110.369C392.112 108.636 392.601 106.015 393.001 104.593C393.356 103.171 393.667 101.571 393.667 101.083C393.667 99.0832 393.4 99.0832 419.793 99.0835C442.453 99.0833 444.853 98.9945 444.586 98.3727C444.453 97.9727 444.32 97.5283 444.32 97.3062C444.32 96.9952 436.544 89.9749 430.546 84.8652C428.991 83.5322 427.346 82.1103 426.991 81.7549C425.702 80.5999 422.37 77.6229 417.883 73.7572C415.439 71.6689 411.662 68.3809 409.485 66.3814C407.263 64.4263 404.242 61.8492 402.775 60.6052C400.154 58.4723 397.843 56.473 395.444 54.207C393.889 52.785 389.579 49.0085 386.957 46.8314C385.802 45.8537 382.514 43.0101 379.582 40.433C376.694 37.856 373.05 34.6568 371.495 33.3238C368.607 30.8359 367.496 29.8139 364.786 27.3701C363.942 26.6146 361.454 24.482 359.232 22.6604C357.055 20.8387 355.144 19.1947 355.011 19.0615C354.567 18.5725 346.258 11.2413 343.458 8.88647C340.615 6.48706 339.371 5.42066 335.461 1.82166C334.217 0.710825 333.017 0 332.35 0C331.684 0 330.484 0.710917 329.24 1.82178Z" fill="#FE66C4"/>
<path d="M405.042 115.39C404.908 116.101 404.686 117.434 404.553 118.411C404.375 119.388 403.975 121.077 403.664 122.188C403.042 124.098 402.287 127.253 401.043 132.452C400.732 133.829 400.332 135.206 400.11 135.473C399.932 135.784 399.399 137.384 398.955 139.028C397.444 144.715 396.777 146.848 396.333 147.736C395.889 148.714 394.378 152.979 393.623 155.512C393.356 156.356 392.867 157.378 392.512 157.778C392.156 158.133 391.89 158.711 391.89 159.066C391.89 159.6 390.468 163.154 388.735 166.887C388.291 167.908 387.891 168.841 387.891 168.975C387.891 169.686 379.227 187.325 376.739 191.724C376.028 192.923 375.139 194.523 374.784 195.278C374.428 195.99 373.628 197.411 373.051 198.389C372.429 199.366 371.54 200.877 371.051 201.721C370.563 202.565 369.452 204.387 368.608 205.72C366.475 209.008 366.519 208.919 363.365 213.629C361.81 215.895 360.343 218.117 360.121 218.561C359.855 218.961 359.366 219.672 359.011 220.072C358.655 220.471 357.855 221.494 357.233 222.382C356.611 223.271 354.967 225.537 353.501 227.359C352.079 229.225 350.435 231.446 349.858 232.291L348.791 233.846L348.791 349.858C348.792 439.521 348.925 466.047 349.325 466.447C349.725 466.847 356.745 466.981 378.161 466.981C403.31 466.981 406.553 466.892 407.175 466.27C407.798 465.648 407.886 449.074 407.886 291.03C407.886 180.083 407.708 116.012 407.441 115.301C406.863 113.746 405.353 113.79 405.042 115.39Z" fill="#FE66C4"/>
<path d="M317.2 266.858C316.889 267.258 314.801 269.125 312.579 270.946C310.402 272.813 308.091 274.767 307.558 275.345C306.981 275.878 305.603 276.989 304.537 277.789C303.426 278.589 300.849 280.544 298.805 282.143C296.761 283.743 294.54 285.431 293.873 285.92C290.185 288.63 275.167 298.805 273.168 299.916C272.501 300.271 270.458 301.471 268.591 302.582C266.725 303.693 264.504 304.937 263.659 305.337C262.86 305.781 262.06 306.581 261.926 307.114C261.793 307.692 261.749 343.815 261.793 387.447L261.927 466.758L289.919 466.892C305.337 466.936 318.356 466.892 318.933 466.758L319.911 466.536L319.822 366.431L319.688 266.37L318.755 266.237C318.266 266.148 317.555 266.459 317.2 266.858Z" fill="#FE66C4"/>
<path d="M229.536 321.999C229.092 322.132 228.07 322.621 227.314 323.065C226.559 323.509 225.581 323.909 225.137 323.909C224.648 323.909 223.759 324.22 223.137 324.576C221.982 325.198 219.983 325.998 215.94 327.331C214.829 327.686 213.362 328.264 212.607 328.575C211.052 329.286 207.72 330.396 204.609 331.24C203.41 331.596 201.41 332.174 200.166 332.574C197.945 333.285 194.923 334.173 189.058 335.817C187.37 336.306 185.059 336.884 183.948 337.017C182.838 337.195 181.594 337.55 181.149 337.772C180.705 337.994 179.194 338.35 177.817 338.572C176.351 338.839 175.062 339.327 174.751 339.772C173.862 340.927 173.907 465.781 174.796 466.492C175.196 466.848 183.193 466.936 203.765 466.892L232.158 466.759V394.334C232.157 322.221 232.157 321.91 231.269 321.821C230.78 321.821 229.98 321.866 229.536 321.999Z" fill="#FE66C4"/>
<path d="M0.31073 329.997C0.13303 330.13 -4.99859e-05 360.921 1.40845e-08 398.378L0.000122084 466.536L1.02197 466.759C1.55527 466.892 14.6181 466.936 29.9916 466.892L57.9838 466.758L58.0727 405.442C58.1614 371.718 58.028 343.859 57.8058 343.548C57.5836 343.148 55.9397 342.749 53.7181 342.526C51.6742 342.304 49.0083 341.815 47.7642 341.505C46.5647 341.149 44.2542 340.749 42.6545 340.572C41.055 340.394 39.2777 340.038 38.6556 339.816C38.0336 339.594 36.1674 339.105 34.4347 338.794C29.1916 337.817 16.9729 334.573 10.6635 332.529C9.55265 332.129 7.68644 331.596 6.44244 331.285C5.24274 330.974 3.7765 330.485 3.24329 330.219C2.17696 329.641 0.75516 329.508 0.31073 329.997Z" fill="#FE66C4"/>
<path d="M137.961 345.014C132.585 345.947 111.791 346.703 99.4831 346.437C93.4403 346.303 88.3307 346.347 88.0196 346.525C87.664 346.747 87.5752 362.388 87.6197 406.819L87.7533 466.759L116.145 466.892C136.717 466.936 144.715 466.847 145.115 466.492C145.959 465.781 146.048 345.725 145.204 344.881C144.537 344.215 142.582 344.259 137.961 345.014Z" fill="#FE66C4"/>
</svg>
