<svg width="30" height="30" viewBox="0 0 30 30" fill="none" xmlns="http://www.w3.org/2000/svg">
<path d="M15.0007 20.2785C12.0847 20.2785 9.7207 17.9153 9.7207 15C9.7207 12.084 12.0847 9.72 15.0007 9.72C17.9167 9.72 20.2792 12.084 20.2792 15C20.2792 17.916 17.916 20.2785 15.0007 20.2785Z" stroke="black" stroke-width="2" stroke-miterlimit="10" stroke-linecap="round" stroke-linejoin="round"/>
<path d="M25.6162 12.5805H23.9707C23.703 12.5805 23.4623 12.4117 23.3753 12.159C23.2485 11.7952 23.0993 11.442 22.929 11.1015C22.8068 10.8585 22.857 10.5653 23.049 10.374L24.2183 9.20475C24.4658 8.95725 24.4658 8.556 24.2183 8.3085L21.6915 5.7825C21.444 5.535 21.0435 5.535 20.7952 5.7825L19.605 6.97275C19.4153 7.1625 19.1243 7.2135 18.8828 7.095C18.549 6.93225 18.2025 6.789 17.8463 6.6675C17.5898 6.58125 17.4188 6.339 17.4188 6.06975V4.38375C17.4188 4.03425 17.136 3.75 16.785 3.75H13.2135C12.8632 3.75 12.5798 4.03425 12.5798 4.38375V6.0705C12.5798 6.33975 12.4088 6.582 12.1523 6.66825C11.796 6.789 11.4503 6.93225 11.1158 7.09575C10.8743 7.21425 10.5833 7.16325 10.3935 6.9735L9.20475 5.7825C8.95725 5.535 8.556 5.535 8.3085 5.7825L5.7825 8.30775C5.535 8.55525 5.535 8.9565 5.7825 9.204L6.95175 10.3733C7.14375 10.5653 7.19325 10.8577 7.07175 11.1007C6.90225 11.4412 6.75225 11.7945 6.627 12.1583C6.5385 12.411 6.29775 12.5798 6.03 12.5798H4.38375C4.0335 12.5798 3.75 12.864 3.75 13.2135V16.7858C3.75 17.1353 4.03275 17.4195 4.38375 17.4195H5.98575C6.2595 17.4195 6.50175 17.595 6.58725 17.8545C6.71175 18.2288 6.86025 18.591 7.02975 18.9405C7.14825 19.1843 7.101 19.476 6.90975 19.6673L5.78175 20.7952C5.53425 21.0427 5.53425 21.4433 5.78175 21.6908L8.30775 24.2168C8.55525 24.4643 8.9565 24.4643 9.204 24.2168L10.3103 23.1105C10.503 22.9178 10.7985 22.8705 11.0422 22.9928C11.3985 23.1705 11.7675 23.3258 12.1485 23.454C12.4058 23.5418 12.5798 23.7825 12.5798 24.054V25.614C12.5798 25.9643 12.8625 26.2485 13.2135 26.2485H16.785C17.1353 26.2485 17.4188 25.9643 17.4188 25.614V24.054C17.4188 23.7825 17.5928 23.5418 17.85 23.454C18.2303 23.325 18.6 23.1698 18.9563 22.9928C19.2 22.8705 19.4955 22.917 19.6883 23.1105L20.7945 24.2168C21.0428 24.4643 21.4433 24.4643 21.6908 24.2168L24.2168 21.6908C24.4643 21.4433 24.4643 21.0427 24.2168 20.7952L23.0888 19.6673C22.8983 19.4768 22.8503 19.185 22.9688 18.9405C23.1383 18.591 23.2875 18.228 23.4113 17.8545C23.4968 17.595 23.7383 17.4195 24.0128 17.4195H25.6148C25.965 17.4195 26.2485 17.1353 26.2485 16.7858V13.2135C26.2493 12.864 25.9665 12.5805 25.6162 12.5805Z" stroke="black" stroke-width="2" stroke-miterlimit="10" stroke-linecap="round" stroke-linejoin="round"/>
</svg>
