<svg width="200" height="200" viewBox="0 0 200 200" fill="none" xmlns="http://www.w3.org/2000/svg">
<path fill-rule="evenodd" clip-rule="evenodd" d="M200 100C200 125.297 190.607 148.4 175.118 166.012C165.212 154.847 150.759 147.807 134.674 147.807H68.9627C51.9003 147.807 36.6739 155.729 26.7644 168.093C10.1575 150.24 0 126.306 0 100C0 44.7715 44.7715 0 100 0C155.228 0 200 44.7715 200 100ZM134.674 149.807C150.246 149.807 164.23 156.659 173.773 167.511C155.49 187.478 129.207 200 100 200C71.8039 200 46.3333 188.33 28.1546 169.558C37.6928 157.528 52.4333 149.807 68.9627 149.807H134.674ZM61.4545 88.2686C61.4545 65.9764 79.5259 47.905 101.818 47.905C124.11 47.905 142.182 65.9764 142.182 88.2686C142.182 110.561 124.11 128.632 101.818 128.632C79.5259 128.632 61.4545 110.561 61.4545 88.2686ZM101.818 45.905C78.4213 45.905 59.4545 64.8718 59.4545 88.2686C59.4545 111.665 78.4213 130.632 101.818 130.632C125.215 130.632 144.182 111.665 144.182 88.2686C144.182 64.8718 125.215 45.905 101.818 45.905Z" fill="#232323"/>
</svg>
