<svg width="74" height="74" xmlns="http://www.w3.org/2000/svg" xmlns:xlink="http://www.w3.org/1999/xlink" xml:space="preserve" overflow="hidden"><defs><filter id="fx0" x="-10%" y="-10%" width="120%" height="120%" filterUnits="userSpaceOnUse" primitiveUnits="userSpaceOnUse"><feComponentTransfer color-interpolation-filters="sRGB"><feFuncR type="discrete" tableValues="0 0"/><feFuncG type="discrete" tableValues="0 0"/><feFuncB type="discrete" tableValues="0 0"/><feFuncA type="linear" slope="0.4" intercept="0"/></feComponentTransfer><feGaussianBlur stdDeviation="1.77778 1.77778"/></filter><clipPath id="clip1"><rect x="1139" y="604" width="74" height="74"/></clipPath><clipPath id="clip2"><rect x="-2" y="5" width="79" height="66"/></clipPath></defs><g clip-path="url(#clip1)" transform="translate(-1139 -604)"><g clip-path="url(#clip2)" filter="url(#fx0)" transform="translate(1138 603)"><g><g><g><g><path d="M64.4755 26.3295 62.7775 26.3295 62.7775 44.9936C62.7775 47.8996 61.0855 50.5273 57.6935 50.5273L24.4611 50.5273 24.4611 51.4146C24.4611 53.9838 27.3832 56.5773 30.384 56.5773L55.7918 56.5773 65.5121 62.2925 64.1024 56.5773 64.4755 56.5773C67.4743 56.5773 68.8274 53.9899 68.8274 51.4146L68.8274 30.7601C68.8274 28.1908 67.4743 26.3295 64.4755 26.3295Z" fill="#FF66C4"/><path d="M52.7325 13.3624 14.1338 13.3624C10.7377 13.3624 6.82947 16.3793 6.82947 19.2873L6.82947 42.6805C6.82947 45.3586 10.1408 47.2926 13.317 47.591L11.25 55.4378 24.4954 47.6455 52.7325 47.6455C56.1286 47.6455 59.2625 45.5865 59.2625 42.6805L59.2625 23.7542 59.2625 19.2873C59.2625 16.3793 56.1266 13.3624 52.7325 13.3624ZM20.0224 33.1095C18.0965 33.1095 16.5356 31.5486 16.5356 29.6227 16.5356 27.6968 18.0965 26.1359 20.0224 26.1359 21.9463 26.1359 23.5092 27.6968 23.5092 29.6227 23.5092 31.5486 21.9463 33.1095 20.0224 33.1095ZM33.046 33.1095C31.1201 33.1095 29.5592 31.5486 29.5592 29.6227 29.5592 27.6968 31.1201 26.1359 33.046 26.1359 34.9719 26.1359 36.5328 27.6968 36.5328 29.6227 36.5328 31.5486 34.9719 33.1095 33.046 33.1095ZM46.0715 33.1095C44.1456 33.1095 42.5827 31.5486 42.5827 29.6227 42.5827 27.6968 44.1456 26.1359 46.0715 26.1359 47.9934 26.1359 49.5583 27.6968 49.5583 29.6227 49.5583 31.5486 47.9934 33.1095 46.0715 33.1095Z" fill="#FF66C4"/></g></g></g></g></g><g><g><g><path d="M1199.65 626.501 1197.95 626.501 1197.95 645.165C1197.95 648.071 1196.26 650.699 1192.86 650.699L1159.63 650.699 1159.63 651.586C1159.63 654.155 1162.55 656.749 1165.56 656.749L1190.96 656.749 1200.68 662.464 1199.27 656.749 1199.65 656.749C1202.65 656.749 1204 654.161 1204 651.586L1204 630.932C1204 628.362 1202.65 626.501 1199.65 626.501Z" fill="#FF66C4"/><path d="M1187.9 613.534 1149.31 613.534C1145.91 613.534 1142 616.551 1142 619.459L1142 642.852C1142 645.53 1145.31 647.464 1148.49 647.763L1146.42 655.609 1159.67 647.817 1187.9 647.817C1191.3 647.817 1194.43 645.758 1194.43 642.852L1194.43 623.926 1194.43 619.459C1194.43 616.551 1191.3 613.534 1187.9 613.534ZM1155.19 633.281C1153.27 633.281 1151.71 631.72 1151.71 629.794 1151.71 627.868 1153.27 626.307 1155.19 626.307 1157.12 626.307 1158.68 627.868 1158.68 629.794 1158.68 631.72 1157.12 633.281 1155.19 633.281ZM1168.22 633.281C1166.29 633.281 1164.73 631.72 1164.73 629.794 1164.73 627.868 1166.29 626.307 1168.22 626.307 1170.14 626.307 1171.7 627.868 1171.7 629.794 1171.7 631.72 1170.14 633.281 1168.22 633.281ZM1181.24 633.281C1179.32 633.281 1177.75 631.72 1177.75 629.794 1177.75 627.868 1179.32 626.307 1181.24 626.307 1183.16 626.307 1184.73 627.868 1184.73 629.794 1184.73 631.72 1183.16 633.281 1181.24 633.281Z" fill="#FF66C4"/></g></g></g></g></svg>