<svg width="559" height="369" viewBox="0 0 559 369" fill="none" xmlns="http://www.w3.org/2000/svg">
<path d="M368.802 1.04752C367.627 1.04025 366.466 1.21844 365.319 1.58206L359.754 4.13699C358.861 4.48706 357.978 4.72151 357.105 4.84024C356.203 4.98364 355.028 5.05671 353.581 5.05948C345.358 4.60513 340.368 4.52123 338.61 4.80777C334.243 5.15714 331.142 5.8799 329.307 6.9761C328.848 7.2601 328.467 7.65937 328.164 8.17386C327.431 10.5331 326.879 11.7967 326.509 11.9646L320.513 16.6317C319.45 17.6733 318.694 18.7942 318.245 19.9942C317.173 22.9234 317.521 27.4477 319.292 33.5672L319.809 35.2459L396.599 116.904L402.024 117.344C409.44 117.842 413.764 112.207 414.997 100.439C417.102 84.8782 416.589 64.1359 413.459 38.2124C413.142 37.1852 412.802 36.5538 412.439 36.3181C409.639 35.4978 407.813 34.4438 406.961 33.1561C406.929 33.5117 404.682 29.9006 400.218 22.3229C399.372 20.9879 398.481 19.6834 397.544 18.4093C395.385 15.4709 393.051 12.9627 390.541 10.8849C382.929 4.86449 375.705 1.58541 368.868 1.04764L368.802 1.04752Z" fill="black"/>
<path d="M504.44 294.433L504.072 294.888C439.91 365.556 440.032 365.404 504.44 294.433Z" fill="#49494D"/>
<path d="M403.726 119.809L341.983 133.758L336.368 143.025L276.733 168.077L235.406 285.051L271.724 316.166L299.189 261.465C304.611 282.845 307.266 302.347 307.154 319.969C307.896 326.371 305.775 342.63 300.791 368.746L479.702 368.747C480.125 367.187 480.295 365.681 480.21 364.231L546.427 325.409C548.428 324.33 550.892 322.349 553.819 319.466C559.959 313.418 560.575 303.198 555.666 288.808L554.163 284.086L484.968 152.178L421.103 136.268L403.726 119.809ZM474.085 246.974L489.011 270.36L503.938 293.746C490.154 299.835 476.37 305.925 462.586 312.014L474.085 246.974Z" fill="black"/>
<path d="M403.569 120.173C402.696 127.194 400.219 133.423 396.138 138.859C392.702 143.62 385.258 150.51 373.805 159.53C363.481 155.658 356.478 152.12 352.794 148.917C349.154 146.105 345.82 141.014 342.792 133.643C341.949 137.646 341.805 141.904 342.359 146.418C343.2 154.835 346.479 169.361 352.195 189.995C357.513 209.523 368.157 245.708 384.128 298.55L406.659 149.617L403.605 120.507L403.569 120.173Z" fill="white"/>
<path d="M388.011 344.156L384.637 368.746L394.365 368.747L388.011 344.156Z" fill="white"/>
<path d="M373.106 159.976L363.997 165.973L369.797 175.444L366.836 183.37C365.023 193.911 363.792 202.019 363.145 207.694C361.736 219.457 361.426 230.142 362.217 239.747C363.032 250.82 365.727 262.912 370.302 276.022C375.965 291.477 380.738 300.623 384.621 303.457C386.631 304.614 387.44 300.735 387.048 291.819C386.949 289.429 386.752 286.37 386.458 282.642C385.032 266.253 384.279 257.269 384.2 255.69C383.819 250.46 383.491 244.953 383.214 239.169C382.583 226.771 382.139 208.398 381.884 184.049L379.21 175.661L385.58 165.625L373.135 159.989L373.106 159.976Z" fill="black"/>
<path d="M329.33 27.03C325.11 26.8607 321.887 28.4767 319.661 31.8779C316.919 36.1565 314.774 42.6235 313.228 51.2789C312.323 56.5927 312.039 60.8941 312.377 64.1829L312.942 67.4581C314.272 71.6721 314.942 74.0849 314.952 74.6962L316.072 88.4066C316.409 91.067 316.94 93.4598 317.665 95.5849C318.084 97.4771 320.752 103.07 325.669 112.363C326.122 113.214 327.137 115.993 328.713 120.702C329.053 121.606 329.465 122.451 329.948 123.237C331.17 125.796 335.44 128.057 342.76 130.018L342.694 134.66L346.214 142.568L347.898 144.548C351.562 149.942 360.343 155.229 374.241 160.409C383.574 153.464 389.996 148.033 393.507 144.116C396.991 140.469 400.324 135.224 403.508 128.381L393.156 90.8789C402.446 79.3709 406.046 69.5326 403.955 61.3641C401.784 56.173 396.588 55.9245 388.368 60.6185C383.315 63.6627 381.976 69.6221 384.35 78.4967L378.416 79.372L372.725 50.5332C364.652 47.9387 360.591 45.7386 360.542 43.9332C360.32 43.1132 360.485 42.2425 361.036 41.3211L365.885 34.5512C366.331 33.4646 366.27 32.6346 365.701 32.0615C364.891 31.0637 362.302 30.2606 357.935 29.6519L329.344 27.03H329.33Z" fill="#FFD3A9"/>
<path d="M449.07 320.925C440.371 318.644 434.246 316.824 430.695 315.467C428.256 314.719 424.156 312.68 418.395 309.35C417.285 308.833 416.296 308.526 415.428 308.429C414.368 308.271 413.062 308.461 411.51 309C411.223 308.972 408.516 310.281 403.39 312.929C402.107 313.46 400.848 313.811 399.613 313.982C398.42 314.143 397.232 314.172 396.048 314.069C395.698 314.131 392.827 313.659 387.438 312.652C386.237 312.515 385.275 312.55 384.55 312.754C382.526 313.276 381.997 314.892 382.962 317.603C378.686 317.108 376.398 318.156 376.098 320.747C375.412 324.202 376.151 326.855 378.318 328.705C376.14 329.737 375.989 333.558 377.864 340.167C378.234 341.244 378.617 341.968 379.012 342.34C379.156 342.619 379.806 342.864 380.963 343.075C381.108 343.143 381.251 343.303 381.394 343.556C381.598 343.98 381.753 344.635 381.861 345.52L382.573 352.664L387.512 360.685C388.447 362.061 389.351 363.175 390.224 364.026C393.175 367.367 397.897 368.119 404.39 366.283C405.356 366.024 406.454 365.685 407.683 365.267L411.617 363.812C428.833 356.3 438.57 352.336 440.829 351.92C447.01 350.016 453.04 349.218 458.918 349.525L449.072 320.93L449.07 320.925Z" fill="#FFD3A9"/>
<path d="M352.314 192.374L315.56 219.594L354.34 323.814L386.955 305.137C372.595 261.044 361.063 223.509 352.36 192.531L352.314 192.374Z" fill="black"/>
<path d="M394.984 230.51C390.6 254.866 386.873 280.372 383.804 307.028L414.499 268.301L395 230.54L394.984 230.51Z" fill="black"/>
<path d="M381.614 116.266C372.553 124.02 365.782 128.604 361.301 130.018C358.831 130.898 356.161 131.339 353.291 131.342C350.86 131.382 347.337 130.953 342.72 130.056L343.108 137.097L351.867 149.976L381.581 116.308L381.614 116.266Z" fill="#FF1C00" fill-opacity="0.0666667"/>
<path d="M274.507 166.297C273.409 166.365 271.942 167.622 270.106 170.069C269.358 171.062 268.554 172.239 267.694 173.599L261.69 183.362C260.6 185.014 259.577 186.352 258.62 187.378C257.772 188.295 256.789 189.084 255.673 189.747C255.439 189.986 253.585 190.814 250.111 192.23C249.291 192.64 248.571 193.112 247.95 193.647C247.364 194.146 246.711 194.842 245.993 195.735C243.141 199.592 241.543 201.685 241.198 202.014C240.248 203.12 239.357 204.02 238.523 204.711C235.19 207.546 229.978 209.271 222.888 209.886L230.381 238.026L245.416 233.536C247.183 233.053 249.827 232.802 253.346 232.783C253.981 232.711 254.599 232.567 255.2 232.35C257.277 231.608 259.214 229.77 261.011 226.837C264.804 220.577 268.817 208.357 273.05 190.177C276.585 174.282 277.091 166.322 274.565 166.298L274.507 166.297Z" fill="#FFD3A9"/>
<path d="M224.216 207.935C221.016 207.805 216.615 209.528 211.014 213.104L227.433 244.017C230.356 242.983 232.253 241.094 233.124 238.35C234.282 234.73 234.647 230.125 234.221 224.536C233.766 219.525 232.653 215.517 230.882 212.511C229.12 209.592 226.908 208.067 224.245 207.936L224.216 207.935Z" fill="white"/>
<path d="M78.5317 0.00518018C66.6313 -0.17362 55.7153 4.2762 45.7836 13.3547C35.5362 22.9804 29.2101 34.4289 26.8055 47.7002C24.8012 58.2435 26.2714 69.2736 31.2158 80.7906C37.6959 96.331 46.4568 109.563 57.4985 120.486L101.696 117.261C105.998 100.709 109.728 89.8304 112.889 84.6258C114.922 81.0061 117.221 78.5069 119.786 77.1282C120.945 76.468 122.322 75.9286 123.919 75.5102L131.7 74.0121C132.662 73.7536 133.453 73.273 134.071 72.5701C134.758 71.6793 135.071 70.338 135.011 68.5463L133.408 55.8879C133.257 53.9871 133.385 52.4341 133.79 51.2291C134.252 50.0122 135.03 49.055 136.124 48.3576L142.807 45.0001C143.593 44.4075 144.07 43.6246 144.236 42.6513C144.477 39.2906 142.047 34.3123 136.948 27.7166C131.991 21.4457 126.569 16.4151 120.682 12.6247C107.458 4.73902 93.4401 0.532513 78.6291 0.00518018H78.5317Z" fill="black"/>
<path d="M134.303 45.675C132.474 45.6678 131.482 47.3206 131.325 50.6336C131.015 52.814 131.422 59.7978 132.545 71.5853C128.039 73.741 125.184 74.3511 123.982 73.4157C123.265 73.0541 122.734 72.2422 122.389 70.9801L121.197 61.4257C120.862 59.834 120.407 58.7314 119.831 58.118C118.047 56.394 115.107 56.7852 111.013 59.2913C107.397 61.6565 105.096 64.2247 104.111 66.9959C103.751 67.948 103.499 69.1894 103.355 70.7201C103.177 77.3313 102.947 81.4061 102.666 82.9445C102.27 86.0564 101.716 89.0048 101.005 91.7896C99.2066 98.7464 96.8426 103.812 93.9127 106.986C91.445 109.674 88.1542 111.667 84.0403 112.965L78.5541 114.465L55.2976 119.812L56.8756 126.24L122.219 143.759C133.761 140.255 140.274 136.654 141.756 132.956C142.306 131.935 142.588 130.838 142.603 129.665L141.386 122.725C141.259 121.265 141.337 119.681 141.62 117.972C141.386 117.578 143.222 111.54 147.126 99.8588C147.767 97.5893 148.186 95.6555 148.384 94.0576C148.712 91.4178 148.532 88.961 147.843 86.687C147.824 85.8858 146.26 82.6256 143.151 76.9066C142.487 75.3098 142.063 73.7794 141.877 72.3153C141.707 70.9791 141.772 69.7861 142.072 68.7364C142.045 68.4849 142.643 67.3057 143.866 65.1986C144.082 64.7503 144.239 64.2638 144.339 63.7389C144.525 62.6681 144.413 61.4701 144.004 60.1451C143.329 57.6579 141.135 53.1014 137.423 46.4758C136.092 45.9554 135.085 45.6889 134.403 45.6765L134.303 45.675Z" fill="#FFD3A9"/>
<path d="M54.8434 121.835L53.7396 139.437L130.813 163.777C130.229 148.65 124.446 138.414 113.465 133.068C100.068 125.802 80.5394 122.058 54.879 121.836L54.8434 121.835Z" fill="white"/>
<path d="M296.416 317.242C296.055 317.088 295.659 316.988 295.229 316.942L292.453 316.88C291.962 316.845 291.434 316.752 290.87 316.602C290.411 316.48 289.857 316.28 289.205 316.002C285.746 314.366 283.687 313.456 283.028 313.273C281.64 312.782 280.426 312.54 279.388 312.547C276.731 312.585 274.102 314.238 271.502 317.506L304.063 335.166C304.483 334.737 305.192 333.892 306.191 332.632C306.778 331.868 307.215 331.226 307.499 330.706C308.093 329.65 308.246 328.812 307.958 328.192C307.845 327.904 307.614 327.582 307.265 327.228C305.009 325.356 303.813 324.326 303.678 324.138L298.73 318.926C297.816 318.056 297.051 317.498 296.436 317.25L296.416 317.242Z" fill="#FFD3A9"/>
<path d="M69.319 130.331L67.3471 130.356C61.8721 130.489 54.6658 131.154 45.7284 132.353L38.9115 150.741C37.3841 149.926 32.7292 154.731 24.9467 165.158L17.5862 169.921C16.3539 171.035 14.8246 173.274 12.9984 176.639C7.91028 185.75 3.90129 199.286 0.971394 217.247C-0.968006 234.527 -0.00337768 249.832 3.86527 263.165C5.34923 269.239 7.99758 277.396 11.8103 287.636L33.031 339.412C36.2323 348.342 38.0009 358.12 38.3367 368.746L190.992 368.747L188.234 330.347L231.85 368.746L307.997 368.747C311.322 350.53 309.076 336.851 301.259 327.708C299.498 324.232 292.599 321.077 280.562 318.241L219.434 258.928C232.005 249.51 232.68 234.373 221.461 213.518C215.664 210.055 206.53 210.569 194.058 215.059C183.822 194.353 174.528 182.146 166.175 178.438C161.706 174.79 149.655 168.799 130.022 160.465C113.607 146.395 102.781 138.416 97.5409 136.529C88.006 131.98 78.5987 129.914 69.319 130.331Z" fill="black"/>
</svg>
